<svg width="25" height="25" viewBox="0 0 25 25" fill="none" xmlns="http://www.w3.org/2000/svg">
<g clip-path="url(#clip0_118_2201)">
<path fill-rule="evenodd" clip-rule="evenodd" d="M18.9567 23.7603C19.2787 23.9883 19.6937 24.0453 20.0637 23.9053C20.4337 23.7643 20.7057 23.4483 20.7877 23.0653C21.6567 18.9813 23.7647 8.64435 24.5557 4.92935C24.6157 4.64935 24.5157 4.35835 24.2957 4.17135C24.0757 3.98435 23.7707 3.93035 23.4987 4.03135C19.3057 5.58335 6.39266 10.4283 1.11466 12.3813C0.779663 12.5053 0.561663 12.8273 0.572663 13.1803C0.584663 13.5343 0.822663 13.8413 1.16566 13.9443C3.53266 14.6523 6.63966 15.6373 6.63966 15.6373C6.63966 15.6373 8.09166 20.0224 8.84866 22.2523C8.94366 22.5324 9.16266 22.7523 9.45166 22.8284C9.73966 22.9034 10.0477 22.8243 10.2627 22.6213C11.4787 21.4733 13.3587 19.6983 13.3587 19.6983C13.3587 19.6983 16.9307 22.3173 18.9567 23.7603ZM7.94666 15.0833L9.62566 20.6213L9.99866 17.1143C9.99866 17.1143 16.4857 11.2633 20.1837 7.92835C20.2917 7.83035 20.3067 7.66635 20.2167 7.55135C20.1277 7.43635 19.9637 7.40935 19.8407 7.48735C15.5547 10.2243 7.94666 15.0833 7.94666 15.0833Z" fill="white"/>
</g>
<defs>
<clipPath id="clip0_118_2201">
<rect width="24" height="24" fill="white" transform="translate(0.572266 0.981445)"/>
</clipPath>
</defs>
</svg>
