<svg width="30" height="22" viewBox="0 0 30 22" fill="none" xmlns="http://www.w3.org/2000/svg">
<path d="M15.9453 0.854856C16.3048 0.741211 16.6975 0.836083 17.027 0.984326C17.2572 1.11955 17.4874 1.25621 17.7453 1.34468C17.765 1.37849 17.806 1.44538 17.8257 1.47847C17.8154 1.50077 17.7957 1.5468 17.7855 1.5691C17.9692 1.95031 18.0866 2.40202 17.9085 2.80258C17.787 2.93781 17.5757 2.95874 17.4047 3.0111C17.4039 3.20459 17.4378 3.39598 17.4559 3.58803C17.8217 3.64198 18.1314 3.40965 18.4933 3.43267C18.5422 3.24781 18.5808 3.05994 18.6456 2.87875C18.7205 2.99887 18.7236 3.13705 18.7245 3.27227C18.8191 3.29672 18.9153 3.31902 19.0121 3.34053C19.013 3.37369 19.0138 3.43986 19.0138 3.47295C20.6001 3.48158 22.1855 3.4664 23.7719 3.48086C23.768 3.53035 23.7602 3.62968 23.7571 3.67938C23.7981 3.67938 23.8816 3.6801 23.9233 3.6801C23.9217 3.41692 23.9233 3.15287 23.9225 2.88969C23.9627 2.88818 24.0415 2.88602 24.081 2.8853C24.0819 3.09245 24.0826 3.2996 24.085 3.50682C24.1196 3.54567 24.189 3.62328 24.2238 3.66212C24.2498 3.63399 24.3018 3.57875 24.3277 3.55063C24.4484 3.65356 24.3798 3.79453 24.3744 3.92098C24.8183 3.9166 25.2667 3.94393 25.7092 3.91084C25.7423 3.88854 25.8085 3.84467 25.8417 3.82244C25.9025 3.84395 25.9639 3.8656 26.0246 3.8879C26.224 3.88344 26.4243 3.88286 26.6246 3.88214C26.6205 3.97637 26.6173 4.07052 26.6134 4.16482C26.3556 4.16115 26.097 4.15619 25.8431 4.19639C25.6791 4.06772 25.4591 4.10857 25.2612 4.10368C24.9569 4.11663 24.6429 4.06772 24.3482 4.15611C24.173 4.20071 23.9808 4.18999 23.8263 4.09929C23.7891 4.18345 23.846 4.3719 23.6905 4.36463C23.0787 4.3719 22.4677 4.35967 21.8567 4.3683C21.7731 4.40858 21.6887 4.4467 21.6053 4.48403C21.517 4.72427 21.2639 4.8846 21.0485 5.03133C21.0217 5.40032 21.1818 5.74485 21.2441 6.10298C21.1234 6.13455 21.002 6.16707 20.883 6.20303C20.7119 6.5713 20.8167 7.074 20.4209 7.33092C20.1174 7.49197 19.9165 7.84226 19.5072 7.78694C19.7153 7.94519 19.4504 7.89556 19.478 7.76896C18.7376 7.70926 18.114 7.31294 17.4707 7.01092C17.4407 7.17628 17.3935 7.33891 17.3445 7.50075C17.5889 7.54318 17.7908 7.70718 17.8341 7.93591C17.9122 8.43444 17.7561 8.92937 17.7584 9.42919C17.7758 9.72266 17.6378 9.9916 17.4659 10.2311C17.3153 10.3865 17.078 10.2267 16.8975 10.2038C16.8564 10.2764 16.8163 10.3491 16.7768 10.4224C16.8281 10.618 16.8502 10.8216 16.9219 11.0129C17.3248 11.4193 17.6914 11.8596 17.9729 12.3451C18.2626 12.8949 18.5208 13.4581 18.7464 14.0324C18.7684 14.144 18.8835 14.184 18.9846 14.2245C18.998 14.3395 19.0114 14.4545 19.024 14.5711C19.0634 14.6236 19.1036 14.676 19.1446 14.7292C19.1691 15.4385 19.0737 16.1448 18.9529 16.8446C18.8781 17.1605 19.0806 17.469 18.9986 17.7869C19.0081 17.9497 18.8852 18.0726 18.8275 18.2164C18.8165 18.5523 18.7984 18.8925 18.8387 19.2278C18.867 19.4738 19.095 19.632 19.2495 19.8155C19.4182 19.9788 19.5593 20.1981 19.8148 20.2563C20.0553 20.3218 20.2847 20.4167 20.4966 20.5412C20.5613 20.6871 20.5494 20.8419 20.5187 20.9936C20.0567 21.0712 19.5852 21.0325 19.1185 21.039C18.7588 21.0562 18.4381 20.88 18.0886 20.8432C17.7504 20.8355 17.338 20.9886 17.078 20.7124C17.1882 20.3292 17.1971 19.9176 17.3987 19.56C17.4634 19.1552 17.3406 18.7444 17.3664 18.3358C17.3279 18.3063 17.2505 18.2474 17.2119 18.2177C17.2396 17.951 17.0953 17.7135 17.0471 17.4583C17.0157 17.0855 16.9785 16.713 16.9312 16.3419C16.8942 16.1613 16.9967 15.996 17.1362 15.8758C17.1488 15.6673 17.1797 15.4608 17.2016 15.2537C17.1677 15.1191 17.0503 15.0192 16.9746 14.9041C16.7215 15.0014 16.3801 14.9552 16.2295 14.7292C15.8724 14.2445 15.516 13.7597 15.1549 13.2778C15.013 13.2692 14.8632 13.2828 14.7307 13.231C14.5779 13.0879 14.4981 12.8973 14.4005 12.7233C14.2609 12.8664 14.2711 13.0857 14.1057 13.216C13.7556 13.5224 13.6626 13.9727 13.4797 14.3654C13.3395 14.6199 13.4183 14.927 13.262 15.1753C13.1785 15.309 12.9688 15.3356 12.9136 15.4882C12.841 15.6528 12.7559 15.8233 12.5864 15.9235C12.4027 16.0334 12.3539 16.2421 12.2719 16.4146C12.197 16.5736 12.3082 16.7404 12.2822 16.9038C12.1655 17.4224 11.8036 17.8561 11.6515 18.364C11.5821 18.5927 11.4827 18.8502 11.1909 18.899C10.859 19.4399 10.6762 20.1017 10.8638 20.7107C10.9789 20.9021 10.9726 21.1171 10.9371 21.3279C10.4098 21.3654 9.86883 21.43 9.35091 21.2956C9.2295 21.0761 9.24684 20.8179 9.27207 20.5808C9.43204 19.957 9.64421 19.3443 9.77422 18.7142C9.61181 18.5826 9.64973 18.3812 9.6528 18.2049C9.64736 17.8762 9.89248 17.613 10.0628 17.3432C10.1267 17.0663 10.0968 16.7688 10.2536 16.5146C10.4382 16.1967 10.5942 15.853 10.8789 15.5961C10.9332 15.3695 11.1163 15.1984 11.1902 14.9803C11.2691 14.7875 11.1311 14.5919 11.1588 14.3949C11.2266 13.797 11.3457 13.2051 11.449 12.6117C11.2535 12.4628 11.3165 12.2262 11.2542 12.0255C11.285 11.9464 11.3236 11.8709 11.3701 11.7975C11.3213 11.7565 11.2733 11.7148 11.2243 11.6738C11.2716 11.4629 11.2582 11.0853 11.613 11.1538C11.6351 10.4554 11.3694 9.77927 11.4585 9.08006C11.5058 9.13034 11.5522 9.18148 11.5996 9.23254L11.5743 8.9959C11.7226 8.92398 11.8803 8.86859 12.0458 8.84054C11.7762 8.80824 11.5136 8.74567 11.2494 8.68949C11.1855 8.53621 11.2211 8.37301 11.2446 8.21621C11.3471 7.68682 11.385 7.15024 11.4063 6.61366C11.7051 6.51886 12.0346 6.59935 12.3263 6.47269C12.2358 5.8016 12.213 5.1011 12.4746 4.45728C12.6851 3.90912 13.0873 3.38045 13.7148 3.18775C14.0112 3.12309 14.3841 3.05037 14.5937 3.31291C14.6513 3.26472 14.7088 3.21509 14.7664 3.1669C14.2879 2.29988 14.8595 1.03324 15.9453 0.854856ZM19.7746 4.61523C19.6484 4.68572 19.5247 4.76635 19.6573 4.89438C19.5926 4.92955 19.5278 4.96343 19.4624 4.99573C19.3599 5.06765 19.1297 5.10858 19.1565 5.25402C19.2716 5.4227 19.3708 5.60002 19.453 5.78405C19.7044 5.59567 19.9047 5.34234 20.0403 5.0742C20.0687 5.04759 20.1263 4.99436 20.1546 4.96839C20.142 4.8454 20.112 4.72521 20.0592 4.61163C19.9646 4.61314 19.8692 4.61451 19.7746 4.61523Z" fill="white"/>
<path d="M0.512547 10.9713C0.549682 10.1391 1.31359 9.35715 2.24314 9.32479C3.97996 9.32328 5.71764 9.32328 7.45462 9.32551C8.39284 9.31695 9.17433 10.0902 9.24513 10.9195C9.11977 10.9289 8.99441 10.936 8.86905 10.9375C6.80101 10.9354 4.73298 10.9382 2.66565 10.936C2.66479 12.2767 2.65706 13.6174 2.6696 14.9582C4.86465 14.9552 7.05883 14.9538 9.2538 14.9589C9.19151 15.8183 8.39828 16.581 7.44208 16.6147C5.86839 16.6349 4.29469 16.6154 2.72092 16.6241C2.32908 16.6364 1.9254 16.5917 1.57227 16.4284C0.963604 16.1444 0.533046 15.5653 0.511916 14.9366C0.510182 13.6146 0.507816 12.2932 0.512547 10.9713Z" fill="white"/>
<path d="M22.5407 9.32384C21.8357 9.316 21.1735 9.74389 20.8841 10.3201C20.594 10.8358 20.7343 11.432 20.6996 11.9873C20.673 12.8885 21.5497 13.7193 22.5407 13.7121C24.265 13.715 25.9893 13.7057 27.7128 13.7165C27.7128 14.1638 27.7159 14.6112 27.7104 15.0587C25.3814 15.0637 23.0516 15.0674 20.7226 15.0572C20.777 15.621 21.1712 16.1462 21.7199 16.4073C22.0661 16.5807 22.4698 16.6318 22.86 16.6246C24.514 16.6188 26.1691 16.6317 27.8231 16.6174C28.6501 16.5936 29.4251 16.0427 29.6127 15.3032C29.6947 14.8466 29.6947 14.3833 29.6861 13.9222C29.6735 13.4605 29.5102 12.9807 29.124 12.6656C28.7803 12.3096 28.2504 12.1621 27.7459 12.1441C26.0445 12.1441 24.3423 12.1476 22.6409 12.1427C22.6417 11.722 22.6368 11.3019 22.6472 10.8819C24.9359 10.8739 27.2255 10.8991 29.5136 10.8696C29.4496 10.0531 28.6517 9.32959 27.7459 9.32456C26.0105 9.32384 24.2752 9.32535 22.5407 9.32384Z" fill="white"/>
</svg>
