<svg width="64" height="55" viewBox="0 0 64 55" fill="none" xmlns="http://www.w3.org/2000/svg">
<path d="M15.361 3.6281C16.2546 2.08251 17.9044 1.13062 19.6897 1.13062H44.1038C45.889 1.13062 47.5389 2.08251 48.4324 3.6281L60.6325 24.7309C61.5276 26.2792 61.5276 28.1877 60.6325 29.736L48.4324 50.8388C47.5389 52.3844 45.889 53.3363 44.1038 53.3363H19.6897C17.9044 53.3363 16.2546 52.3844 15.361 50.8388L3.16094 29.736C2.26584 28.1877 2.26584 26.2792 3.16094 24.7309L15.361 3.6281Z" stroke="white" stroke-opacity="0.25" stroke-width="2"/>
<path d="M43.0271 23.6658L43.7189 23.3189V16.2667L42.9669 15.8896L40.7108 15.7463L40.1167 16.146V15.5125L35.6046 15.2334L35.4091 16.146L34.3713 16.2667L33.0478 15.2334H29.4982L28.3025 16.1083H26.0465L25.8585 15.8293L19.8423 15.6709L19.7671 16.9304C19.899 17.5985 19.962 18.2784 19.9551 18.9594C19.9496 19.7288 19.8227 20.4925 19.5791 21.2221V22.4515L20.0529 24.6237L19.8348 25.378V26.0115L20.3988 26.4792V27.1127L19.8348 27.7765V30.2579L20.3311 31.0122L20.271 32.9958L19.8348 33.8783V35.5527L20.0228 35.8695V36.5558L19.8724 36.9707V37.8833L20.4364 38.3208H23.6325L24.0762 38.102L24.4823 38.3208L24.8884 38.1322L25.302 38.2906L26.3698 38.3585L27.4979 38.0417L27.6182 38.3585L28.844 38.4188L29.1297 38.102L30.0397 39.2334L30.7917 38.5772L31.0098 38.8261L31.7618 38.7658L32.3634 39.2334L33.3711 38.6375H37.2591L37.7028 38.2303L38.2367 38.4792H41.2448L40.9665 38.0115H41.7185L43.7264 38.5169V28.9531H42.9293L43.5911 28.2667V26.2831L42.621 24.7746L43.0571 24.3371L43.0271 23.6658ZM37.4997 19.4798L39.1692 20.4226L38.6353 23.7941L33.9577 20.4226L37.4997 19.4798ZM26.2946 35.1605H24.4146L22.7225 33.7425L24.1664 29.5188L28.9643 34.1121L26.2946 35.1605ZM39.3572 34.904H36.7176L22.3089 19.9248L24.0687 19.1705L40.959 30.5898L39.3572 34.904Z" fill="white"/>
</svg>
