<svg width="11" height="11" viewBox="0 0 11 11" fill="none" xmlns="http://www.w3.org/2000/svg">
<path d="M10.6814 3.86486L10.9966 3.70585V0.473601L10.654 0.300754L9.62628 0.235072L9.35565 0.41829V0.127907L7.30022 0L7.21115 0.41829L6.7384 0.473601L6.13547 0H4.51853L3.97384 0.401006H2.94612L2.86048 0.273099L0.1199 0.200503L0.0856431 0.777813C0.145728 1.084 0.174427 1.39561 0.171286 1.70773C0.168758 2.06038 0.110948 2.4104 0 2.74481V3.3083L0.215821 4.3039L0.116475 4.64959V4.93997L0.373404 5.1543V5.44469L0.116475 5.7489V6.88623L0.342572 7.23193L0.315167 8.14111L0.116475 8.54557V9.31301L0.202118 9.4582V9.77279L0.133603 9.96292V10.3812L0.390533 10.5817H1.84647L2.04858 10.4815L2.23357 10.5817L2.41856 10.4953L2.60698 10.5679L3.09343 10.599L3.60729 10.4538L3.6621 10.599L4.22049 10.6266L4.35067 10.4815L4.76518 11L5.10776 10.6992L5.2071 10.8133L5.54967 10.7857L5.82373 11L6.28278 10.7269H8.05388L8.25599 10.5402L8.49922 10.6543H9.86951L9.74276 10.44H10.0853L11 10.6716V6.28818H10.6369L10.9383 5.9736V5.06442L10.4964 4.37304L10.6951 4.17253L10.6814 3.86486ZM8.1635 1.94626L8.92401 2.37838L8.68079 3.92363L6.54998 2.37838L8.1635 1.94626ZM3.05917 9.13325H2.20274L1.43195 8.48334L2.08969 6.54745L4.2753 8.65273L3.05917 9.13325ZM9.00965 9.01571H7.80723L1.24354 2.15022L2.04516 1.80453L9.73933 7.03834L9.00965 9.01571Z" fill="white"/>
</svg>
