<svg width="64" height="55" viewBox="0 0 64 55" fill="none" xmlns="http://www.w3.org/2000/svg">
<mask id="mask0_323_4" style="mask-type:luminance" maskUnits="userSpaceOnUse" x="21" y="15" width="25" height="25">
<path d="M45.0111 15.5687H21.3516V39.5687H45.0111V15.5687Z" fill="white"/>
</mask>
<g mask="url(#mask0_323_4)">
<path d="M22.7764 22.8811C21.8682 24.4462 21.3516 26.2385 21.3516 28.1443C21.3516 30.0502 21.8682 31.8442 22.7764 33.4092V22.8811Z" fill="white"/>
<path d="M33.1811 17.0852C32.2214 17.0852 31.2901 17.1955 30.3965 17.3957V19.1361C31.2814 18.899 32.2144 18.7688 33.1811 18.7688C38.7191 18.7688 43.2092 22.9534 43.2092 28.1163C43.2092 30.4413 42.2958 32.5677 40.7887 34.2034L40.5028 35.1574L39.8702 37.269C42.9749 35.276 45.0126 31.9336 45.0126 28.1472C45.0109 22.0363 39.7147 17.0852 33.1811 17.0852Z" fill="white"/>
<path d="M29.3237 15.5686H22.5737L23.8483 18.0425V37.0964L22.5737 39.5686H38.0644L39.4694 34.8866H29.3237V15.5686Z" fill="white"/>
</g>
<path d="M15.361 3.77196C16.2546 2.22637 17.9044 1.27448 19.6897 1.27448H44.1038C45.889 1.27448 47.5389 2.22637 48.4324 3.77196L60.6325 24.8748C61.5276 26.4231 61.5276 28.3315 60.6325 29.8798L48.4324 50.9827C47.5389 52.5282 45.889 53.4801 44.1038 53.4801H19.6897C17.9044 53.4801 16.2546 52.5282 15.361 50.9827L3.16094 29.8798C2.26584 28.3315 2.26584 26.4231 3.16094 24.8748L15.361 3.77196Z" stroke="white" stroke-opacity="0.25" stroke-width="2"/>
</svg>
