<svg width="52" height="52" viewBox="0 0 52 52" fill="none" xmlns="http://www.w3.org/2000/svg">
<g opacity="0.25" clip-path="url(#clip0_350_9)">
<path d="M11.1564 43.4233V41.1005C11.1564 40.212 10.616 39.6301 9.68822 39.6301C9.22435 39.6301 8.71995 39.7835 8.37317 40.2886C8.10295 39.8647 7.71564 39.6301 7.13468 39.6301C6.74737 39.6301 6.36006 39.7474 6.05381 40.1714V39.7068H5.24316V43.4233H6.05381V41.3711C6.05381 40.7126 6.40059 40.4014 6.94102 40.4014C7.48145 40.4014 7.75167 40.7487 7.75167 41.3711V43.4233H8.56232V41.3711C8.56232 40.7126 8.94963 40.4014 9.44953 40.4014C9.98996 40.4014 10.2602 40.7487 10.2602 41.3711V43.4233H11.1564ZM23.181 39.7068H21.866V38.5837H21.0553V39.7068H20.3212V40.442H21.0553V42.1469C21.0553 42.9993 21.4021 43.5 22.3298 43.5C22.6766 43.5 23.0639 43.3827 23.3341 43.2294L23.0999 42.5303C22.8658 42.6836 22.5955 42.7242 22.4019 42.7242C22.0146 42.7242 21.8615 42.4897 21.8615 42.1063V40.442H23.1765V39.7068H23.181ZM30.0625 39.6256C29.5986 39.6256 29.2879 39.8602 29.0942 40.1669V39.7023H28.2836V43.4188H29.0942V41.326C29.0942 40.7081 29.3645 40.3563 29.8689 40.3563C30.022 40.3563 30.2156 40.3969 30.3733 40.433L30.6075 39.6572C30.4453 39.6256 30.2156 39.6256 30.0625 39.6256ZM19.6637 40.0135C19.2764 39.7429 18.736 39.6256 18.155 39.6256C17.2273 39.6256 16.6103 40.0902 16.6103 40.8254C16.6103 41.4433 17.0741 41.7951 17.8848 41.9078L18.2721 41.9484C18.6954 42.0251 18.9296 42.1424 18.9296 42.3363C18.9296 42.6069 18.6189 42.8009 18.0784 42.8009C17.538 42.8009 17.1102 42.6069 16.8399 42.413L16.4526 43.0309C16.876 43.3421 17.4569 43.4955 18.0379 43.4955C19.1188 43.4955 19.7403 42.9903 19.7403 42.2957C19.7403 41.6372 19.2359 41.2899 18.4657 41.1727L18.0784 41.1321C17.7317 41.0915 17.4614 41.0148 17.4614 40.7848C17.4614 40.5142 17.7317 40.3608 18.1595 40.3608C18.6234 40.3608 19.0872 40.5547 19.3214 40.672L19.6637 40.0135ZM41.2315 39.6256C40.7676 39.6256 40.4568 39.8602 40.2632 40.1669V39.7023H39.4525V43.4188H40.2632V41.326C40.2632 40.7081 40.5334 40.3563 41.0378 40.3563C41.1909 40.3563 41.3846 40.3969 41.5422 40.433L41.7764 39.6662C41.6188 39.6256 41.3891 39.6256 41.2315 39.6256ZM30.8732 41.5651C30.8732 42.6881 31.6478 43.5 32.8457 43.5C33.3862 43.5 33.7735 43.3827 34.1608 43.076L33.7735 42.4175C33.4627 42.652 33.1565 42.7648 32.8052 42.7648C32.1477 42.7648 31.6838 42.3002 31.6838 41.5651C31.6838 40.866 32.1477 40.4014 32.8052 40.3653C33.152 40.3653 33.4627 40.4826 33.7735 40.7126L34.1608 40.0541C33.7735 39.7429 33.3862 39.6301 32.8457 39.6301C31.6478 39.6256 30.8732 40.442 30.8732 41.5651ZM38.3717 41.5651V39.7068H37.561V40.1714C37.2908 39.8241 36.9035 39.6301 36.3991 39.6301C35.3542 39.6301 34.5436 40.442 34.5436 41.5651C34.5436 42.6881 35.3542 43.5 36.3991 43.5C36.9395 43.5 37.3268 43.306 37.561 42.9587V43.4233H38.3717V41.5651ZM35.3948 41.5651C35.3948 40.9066 35.8181 40.3653 36.5162 40.3653C37.1737 40.3653 37.6376 40.8705 37.6376 41.5651C37.6376 42.2236 37.1737 42.7648 36.5162 42.7648C35.8226 42.7242 35.3948 42.2191 35.3948 41.5651ZM25.694 39.6256C24.6132 39.6256 23.8385 40.4014 23.8385 41.5605C23.8385 42.7242 24.6132 43.4955 25.7346 43.4955C26.275 43.4955 26.8154 43.3421 27.2433 42.9903L26.856 42.4085C26.5452 42.643 26.1579 42.7964 25.7751 42.7964C25.2707 42.7964 24.7708 42.5618 24.6537 41.9078H27.3964C27.3964 41.7906 27.3964 41.7139 27.3964 41.5966C27.4324 40.4014 26.7344 39.6256 25.694 39.6256ZM25.694 40.3247C26.1984 40.3247 26.5452 40.6359 26.6218 41.2133H24.6897C24.7663 40.7126 25.1131 40.3247 25.694 40.3247ZM45.8341 41.5651V38.2365H45.0235V40.1714C44.7533 39.8241 44.366 39.6301 43.8616 39.6301C42.8167 39.6301 42.0061 40.442 42.0061 41.5651C42.0061 42.6881 42.8167 43.5 43.8616 43.5C44.402 43.5 44.7893 43.306 45.0235 42.9587V43.4233H45.8341V41.5651ZM42.8573 41.5651C42.8573 40.9066 43.2806 40.3653 43.9787 40.3653C44.6362 40.3653 45.1 40.8705 45.1 41.5651C45.1 42.2236 44.6362 42.7648 43.9787 42.7648C43.2806 42.7242 42.8573 42.2191 42.8573 41.5651ZM15.7185 41.5651V39.7068H14.9079V40.1714C14.6377 39.8241 14.2504 39.6301 13.746 39.6301C12.7011 39.6301 11.8905 40.442 11.8905 41.5651C11.8905 42.6881 12.7011 43.5 13.746 43.5C14.2864 43.5 14.6737 43.306 14.9079 42.9587V43.4233H15.7185V41.5651ZM12.7056 41.5651C12.7056 40.9066 13.129 40.3653 13.827 40.3653C14.4846 40.3653 14.9484 40.8705 14.9484 41.5651C14.9484 42.2236 14.4846 42.7648 13.827 42.7648C13.129 42.7242 12.7056 42.2191 12.7056 41.5651Z" fill="white"/>
<path d="M31.5713 11.4813H19.3936V33.3924H31.5713V11.4813Z" fill="#C0C0C0"/>
<path d="M20.2038 22.4369C20.2038 17.9852 22.2934 14.0341 25.5 11.4813C23.1401 9.62307 20.1632 8.5 16.9161 8.5C9.22398 8.5 3 14.7332 3 22.4369C3 30.1405 9.22398 36.3737 16.9161 36.3737C20.1632 36.3737 23.1401 35.2506 25.5 33.3924C22.2889 30.8756 20.2038 26.8885 20.2038 22.4369Z" fill="white"/>
<path d="M48 22.4369C48 30.1405 41.776 36.3737 34.0839 36.3737C30.8368 36.3737 27.8599 35.2506 25.5 33.3924C28.7471 30.8351 30.7962 26.8885 30.7962 22.4369C30.7962 17.9852 28.7066 14.0341 25.5 11.4813C27.8554 9.62307 30.8323 8.5 34.0794 8.5C41.776 8.5 48 14.7738 48 22.4369Z" fill="#8C8C8C"/>
</g>
<defs>
<clipPath id="clip0_350_9">
<rect width="45" height="35" fill="white" transform="translate(3 8.5)"/>
</clipPath>
</defs>
</svg>
