<svg width="52" height="52" viewBox="0 0 52 52" fill="none" xmlns="http://www.w3.org/2000/svg">
<g clip-path="url(#clip0_350_8)">
<g opacity="0.15" clip-path="url(#clip1_350_8)">
<path d="M21.2669 34.7403H16.7305L19.5679 17.3158H24.104L21.2669 34.7403Z" fill="white"/>
<path d="M37.7115 17.7418C36.8167 17.3893 35.3975 17 33.6427 17C29.1628 17 26.0082 19.3726 25.9888 22.7646C25.9516 25.2673 28.2475 26.6573 29.9646 27.4918C31.7197 28.3445 32.3163 28.901 32.3163 29.6611C32.2984 30.8284 30.8981 31.3665 29.592 31.3665C27.7809 31.3665 26.8104 31.0891 25.3357 30.4396L24.7383 30.1612L24.1035 34.0727C25.1675 34.5541 27.1277 34.9813 29.1628 35C33.9227 35 37.0216 32.6641 37.0583 29.0494C37.0764 27.0658 35.8641 25.5459 33.2505 24.304C31.6638 23.5067 30.6922 22.9691 30.6922 22.1534C30.7108 21.4118 31.514 20.6522 33.305 20.6522C34.7798 20.615 35.8634 20.9671 36.6842 21.3194L37.0945 21.5044L37.7115 17.7418Z" fill="white"/>
<path d="M43.7402 28.5674C44.1138 27.5664 45.5514 23.6922 45.5514 23.6922C45.5325 23.7294 45.9242 22.6727 46.1482 22.024L46.4652 23.5254C46.4652 23.5254 47.3243 27.6962 47.5108 28.5674C46.8019 28.5674 44.6362 28.5674 43.7402 28.5674ZM49.3398 17.3158H45.8309C44.7489 17.3158 43.9268 17.6307 43.4599 18.7615L36.7217 34.74H41.4816C41.4816 34.74 42.2652 32.5894 42.4337 32.1263C42.9558 32.1263 47.5862 32.1263 48.258 32.1263C48.3882 32.738 48.7993 34.74 48.7993 34.74H52.9996L49.3398 17.3158Z" fill="white"/>
<path d="M12.9412 17.3158L8.49854 29.1976L8.01308 26.7878C7.19173 24.0073 4.61581 20.9863 1.74121 19.4841L5.81049 34.7218H10.6076L17.738 17.3158H12.9412Z" fill="white"/>
<path d="M4.37328 17.3158H-2.92533L-3 17.6679C2.69337 19.1138 6.46398 22.5993 8.01316 26.7886L6.42653 18.7805C6.16531 17.6676 5.36257 17.3525 4.37328 17.3158Z" fill="#858585"/>
</g>
</g>
<defs>
<clipPath id="clip0_350_8">
<rect width="52" height="52" fill="white"/>
</clipPath>
<clipPath id="clip1_350_8">
<rect width="56" height="18" fill="white" transform="translate(-3 17)"/>
</clipPath>
</defs>
</svg>
