<svg width="64" height="55" viewBox="0 0 64 55" fill="none" xmlns="http://www.w3.org/2000/svg">
<path d="M15.361 4.05956C16.2546 2.51397 17.9044 1.56207 19.6897 1.56207H44.1038C45.889 1.56207 47.5389 2.51397 48.4324 4.05955L60.6325 25.1624C61.5276 26.7107 61.5276 28.6191 60.6325 30.1674L48.4324 51.2703C47.5389 52.8158 45.889 53.7677 44.1038 53.7677H19.6897C17.9044 53.7677 16.2546 52.8158 15.361 51.2703L3.16094 30.1674C2.26584 28.6191 2.26584 26.7107 3.16094 25.1624L15.361 4.05956Z" stroke="white" stroke-opacity="0.25" stroke-width="2"/>
<g clip-path="url(#clip0_323_6)">
<path d="M32.0286 14.1651C28.9129 14.1843 25.8326 15.2554 23.4126 17.1388L26.0568 20.0992C28.2885 18.4009 31.2954 17.7089 34.0843 18.2435C35.617 18.5279 37.0754 19.1768 38.3059 20.0992L40.9502 17.1388C38.447 15.1911 35.2516 14.1185 32.0286 14.1651Z" fill="white"/>
<path d="M22.5519 17.8663C19.7657 20.3903 18.1321 24.0594 18.1838 27.7604C18.1855 31.6021 20.0028 35.3758 23.0209 37.8718C25.8107 40.2246 29.6049 41.4231 33.3091 41.1199C37.3229 40.8317 41.1327 38.7644 43.4879 35.6235C45.7804 32.6387 46.6785 28.7026 45.9176 25.0526C45.3581 22.2585 43.839 19.669 41.6785 17.7443L39.0343 20.7047C41.1649 22.6412 42.3282 25.4998 42.1089 28.3198C42.0129 29.717 41.5921 31.0959 40.8809 32.323L35.4922 27.3037L32.7734 21.6525L32.7693 30.2105L38.2151 35.2922C35.7883 37.1103 32.4586 37.7134 29.5081 36.9075C28.3067 36.5843 27.1691 36.0421 26.1804 35.3146L31.6632 30.2105C31.6536 27.4282 31.6967 24.4246 31.6632 21.6433L28.9403 27.3037L23.5053 32.3646C21.8472 29.5735 21.8076 25.9651 23.4035 23.1429C23.9024 22.2387 24.5627 21.4136 25.3288 20.7047L22.6846 17.7443C22.6404 17.785 22.5961 17.8256 22.5519 17.8663Z" fill="white"/>
</g>
<defs>
<clipPath id="clip0_323_6">
<rect width="28" height="27" fill="white" transform="translate(18.1826 14.1649)"/>
</clipPath>
</defs>
</svg>
