<svg width="64" height="55" viewBox="0 0 64 55" fill="none" xmlns="http://www.w3.org/2000/svg">
<path d="M35.3135 37.7125H35.1144C32.7243 37.7125 30.3343 37.7125 27.9442 37.7125C27.6455 37.7125 27.4463 37.6109 27.3467 37.4079C24.8571 34.1592 22.2679 31.012 19.7783 27.7632C19.6787 27.5602 19.5791 27.4587 19.5791 27.2556C19.5791 24.1084 19.5791 21.0627 19.5791 17.9155C19.5791 17.814 19.5791 17.7125 19.6787 17.7125H19.7783C24.9567 24.3114 30.1351 30.9104 35.214 37.5094C35.214 37.5094 35.214 37.6109 35.3135 37.6109V37.7125Z" fill="white"/>
<path d="M43.2805 27.7632C42.5834 28.6769 41.7867 29.5906 41.0896 30.6058C40.8905 30.8088 40.6913 30.9104 40.4921 30.9104C38.1021 30.9104 35.712 30.9104 33.4216 30.9104H33.322C33.2224 30.9104 33.1228 30.8088 33.2224 30.7073C33.2224 30.7073 33.2224 30.6058 33.322 30.6058C35.712 27.5601 38.0025 24.616 40.3925 21.5703C41.3884 20.352 42.3842 19.0322 43.2805 17.8139C43.2805 17.7124 43.3801 17.7124 43.4797 17.7124H43.5792C43.5792 17.8139 43.5792 17.8139 43.5792 17.9154C43.5792 20.9611 43.5792 24.1083 43.5792 27.154C43.4797 27.4586 43.3801 27.6616 43.2805 27.7632Z" fill="white"/>
<path d="M15.361 3.91576C16.2546 2.37017 17.9044 1.41827 19.6897 1.41827H44.1038C45.889 1.41827 47.5389 2.37017 48.4324 3.91576L60.6325 25.0186C61.5276 26.5669 61.5276 28.4753 60.6325 30.0236L48.4324 51.1265C47.5389 52.672 45.889 53.6239 44.1038 53.6239H19.6897C17.9044 53.6239 16.2546 52.672 15.361 51.1265L3.16094 30.0236C2.26584 28.4753 2.26584 26.5669 3.16094 25.0186L15.361 3.91576Z" stroke="white" stroke-opacity="0.25" stroke-width="2"/>
</svg>
