<svg width="10" height="9" viewBox="0 0 10 9" fill="none" xmlns="http://www.w3.org/2000/svg">
<path d="M6.55602 9H6.47303C5.47718 9 4.48133 9 3.48548 9C3.361 9 3.27801 8.95431 3.23651 8.86294C2.19917 7.40101 1.12033 5.98477 0.0829875 4.52284C0.0414937 4.43147 0 4.38579 0 4.29442C0 2.87817 0 1.50761 0 0.0913705C0 0.0456852 -4.01899e-08 0 0.0414937 0H0.0829875C2.24066 2.96954 4.39834 5.93909 6.51452 8.90863C6.51452 8.90863 6.51452 8.95431 6.55602 8.95431V9Z" fill="white"/>
<path d="M9.87554 4.52284C9.58508 4.93401 9.25313 5.34518 8.96268 5.80203C8.87969 5.8934 8.7967 5.93909 8.71371 5.93909C7.71786 5.93909 6.72201 5.93909 5.76765 5.93909H5.72616C5.68467 5.93909 5.64317 5.8934 5.68467 5.84772C5.68467 5.84772 5.68467 5.80203 5.72616 5.80203C6.72201 4.43147 7.67637 3.1066 8.67222 1.73604C9.08716 1.18782 9.50209 0.593909 9.87554 0.0456852C9.87554 -4.42496e-08 9.91703 0 9.95853 0H10C10 0.0456853 10 0.0456852 10 0.0913705C10 1.46193 10 2.87817 10 4.24873C9.95853 4.38579 9.91703 4.47716 9.87554 4.52284Z" fill="white"/>
</svg>
