<svg width="64" height="56" viewBox="0 0 64 56" fill="none" xmlns="http://www.w3.org/2000/svg">
<path d="M32.9448 16.8549C33.3043 16.7412 33.697 16.8361 34.0265 16.9843C34.2567 17.1195 34.487 17.2562 34.7448 17.3447C34.7645 17.3785 34.8055 17.4454 34.8252 17.4785C34.8149 17.5008 34.7952 17.5468 34.785 17.5691C34.9687 17.9503 35.0862 18.402 34.908 18.8026C34.7866 18.9378 34.5753 18.9587 34.4042 19.0111C34.4034 19.2046 34.4373 19.396 34.4554 19.588C34.8213 19.642 35.1309 19.4097 35.4928 19.4327C35.5417 19.2478 35.5803 19.0599 35.6452 18.8788C35.7201 18.9989 35.7231 19.137 35.724 19.2723C35.8186 19.2967 35.9148 19.319 36.0116 19.3405C36.0126 19.3737 36.0133 19.4399 36.0133 19.4729C37.5996 19.4816 39.185 19.4664 40.7714 19.4809C40.7675 19.5303 40.7597 19.6297 40.7566 19.6794C40.7976 19.6794 40.8812 19.6801 40.9228 19.6801C40.9212 19.4169 40.9228 19.1529 40.922 18.8897C40.9622 18.8882 41.041 18.886 41.0805 18.8853C41.0814 19.0925 41.0821 19.2996 41.0845 19.5068C41.1191 19.5457 41.1885 19.6233 41.2233 19.6621C41.2493 19.634 41.3013 19.5788 41.3272 19.5506C41.4479 19.6536 41.3793 19.7945 41.3739 19.921C41.8178 19.9166 42.2663 19.9439 42.7087 19.9108C42.7418 19.8885 42.8081 19.8447 42.8412 19.8224C42.902 19.8439 42.9634 19.8656 43.0241 19.8879C43.2236 19.8834 43.4238 19.8829 43.6241 19.8821C43.62 19.9764 43.6168 20.0705 43.6129 20.1648C43.3551 20.1611 43.0965 20.1562 42.8426 20.1964C42.6786 20.0677 42.4586 20.1086 42.2607 20.1037C41.9564 20.1166 41.6425 20.0677 41.3477 20.1561C41.1726 20.2007 40.9803 20.19 40.8258 20.0993C40.7886 20.1834 40.8455 20.3719 40.69 20.3646C40.0782 20.3719 39.4672 20.3597 38.8562 20.3683C38.7726 20.4086 38.6882 20.4467 38.6048 20.484C38.5165 20.7243 38.2634 20.8846 38.048 21.0313C38.0212 21.4003 38.1813 21.7449 38.2436 22.103C38.1229 22.1346 38.0015 22.1671 37.8825 22.203C37.7114 22.5713 37.8162 23.074 37.4204 23.3309C37.1169 23.492 36.916 23.8423 36.5067 23.7869C36.7148 23.9452 36.4499 23.8956 36.4775 23.769C35.7372 23.7093 35.1135 23.3129 34.4702 23.0109C34.4402 23.1763 34.393 23.3389 34.344 23.5007C34.5884 23.5432 34.7903 23.7072 34.8336 23.9359C34.9117 24.4344 34.7556 24.9294 34.7579 25.4292C34.7753 25.7227 34.6373 25.9916 34.4654 26.2311C34.3148 26.3865 34.0775 26.2267 33.897 26.2038C33.8559 26.2764 33.8158 26.3491 33.7764 26.4224C33.8276 26.618 33.8497 26.8216 33.9214 27.0129C34.3243 27.4193 34.6909 27.8596 34.9724 28.3451C35.2621 28.8949 35.5203 29.4581 35.7459 30.0324C35.7679 30.144 35.883 30.184 35.9841 30.2245C35.9975 30.3395 36.0109 30.4545 36.0235 30.5711C36.0629 30.6236 36.1031 30.676 36.1441 30.7292C36.1686 31.4385 36.0732 32.1448 35.9524 32.8446C35.8777 33.1605 36.0801 33.469 35.9981 33.7869C36.0076 33.9497 35.8848 34.0726 35.827 34.2164C35.816 34.5523 35.7979 34.8925 35.8382 35.2278C35.8665 35.4738 36.0945 35.632 36.249 35.8155C36.4177 35.9788 36.5589 36.1981 36.8143 36.2563C37.0548 36.3218 37.2842 36.4167 37.4961 36.5412C37.5608 36.6871 37.549 36.8419 37.5182 36.9936C37.0562 37.0712 36.5847 37.0325 36.118 37.039C35.7583 37.0562 35.4376 36.88 35.0881 36.8432C34.7499 36.8355 34.3376 36.9886 34.0775 36.7124C34.1878 36.3292 34.1966 35.9176 34.3983 35.56C34.4629 35.1552 34.3401 34.7444 34.3659 34.3358C34.3275 34.3063 34.25 34.2474 34.2114 34.2177C34.2392 33.951 34.0948 33.7135 34.0466 33.4583C34.0152 33.0855 33.978 32.713 33.9307 32.3419C33.8937 32.1613 33.9962 31.996 34.1357 31.8758C34.1483 31.6673 34.1792 31.4608 34.2012 31.2537C34.1673 31.1191 34.0498 31.0192 33.9741 30.9041C33.721 31.0014 33.3796 30.9552 33.229 30.7292C32.872 30.2445 32.5155 29.7597 32.1544 29.2778C32.0125 29.2692 31.8627 29.2828 31.7302 29.231C31.5774 29.0879 31.4976 28.8973 31.4 28.7233C31.2604 28.8664 31.2706 29.0857 31.1052 29.216C30.7551 29.5224 30.6621 29.9727 30.4792 30.3654C30.339 30.6199 30.4178 30.927 30.2616 31.1753C30.178 31.309 29.9683 31.3356 29.9131 31.4882C29.8405 31.6528 29.7554 31.8233 29.5859 31.9235C29.4022 32.0334 29.3534 32.2421 29.2715 32.4146C29.1966 32.5736 29.3077 32.7404 29.2817 32.9038C29.165 33.4224 28.8031 33.8561 28.651 34.364C28.5816 34.5927 28.4822 34.8502 28.1905 34.899C27.8585 35.4399 27.6757 36.1017 27.8633 36.7107C27.9784 36.9021 27.9721 37.1171 27.9367 37.3279C27.4093 37.3654 26.8683 37.43 26.3504 37.2956C26.229 37.0761 26.2464 36.8179 26.2716 36.5808C26.4316 35.957 26.6437 35.3443 26.7737 34.7142C26.6113 34.5826 26.6492 34.3812 26.6523 34.2049C26.6469 33.8762 26.892 33.613 27.0623 33.3432C27.1262 33.0663 27.0963 32.7688 27.2531 32.5146C27.4377 32.1967 27.5937 31.853 27.8784 31.5961C27.9327 31.3695 28.1158 31.1984 28.1897 30.9803C28.2686 30.7875 28.1306 30.5919 28.1584 30.3949C28.2261 29.797 28.3452 29.2051 28.4485 28.6117C28.253 28.4628 28.316 28.2262 28.2538 28.0255C28.2845 27.9464 28.3231 27.8709 28.3697 27.7975C28.3208 27.7565 28.2728 27.7148 28.2238 27.6738C28.2711 27.4629 28.2577 27.0853 28.6125 27.1538C28.6346 26.4554 28.3689 25.7793 28.458 25.0801C28.5053 25.1303 28.5517 25.1815 28.5991 25.2325L28.5739 24.9959C28.7221 24.924 28.8798 24.8686 29.0453 24.8405C28.7757 24.8082 28.5132 24.7457 28.2489 24.6895C28.185 24.5362 28.2206 24.373 28.2441 24.2162C28.3466 23.6868 28.3845 23.1502 28.4058 22.6137C28.7046 22.5189 29.0341 22.5993 29.3259 22.4727C29.2353 21.8016 29.2125 21.1011 29.4741 20.4573C29.6846 19.9091 30.0868 19.3804 30.7143 19.1878C31.0107 19.1231 31.3836 19.0504 31.5932 19.3129C31.6508 19.2647 31.7083 19.2151 31.7659 19.1669C31.2874 18.2999 31.859 17.0332 32.9448 16.8549ZM36.7741 20.6152C36.648 20.6857 36.5242 20.7663 36.6568 20.8944C36.5921 20.9296 36.5273 20.9634 36.4619 20.9957C36.3594 21.0677 36.1292 21.1086 36.156 21.254C36.2711 21.4227 36.3703 21.6 36.4525 21.7841C36.7039 21.5957 36.9042 21.3423 37.0398 21.0742C37.0682 21.0476 37.1258 20.9944 37.1541 20.9684C37.1415 20.8454 37.1115 20.7252 37.0587 20.6116C36.9641 20.6131 36.8687 20.6145 36.7741 20.6152Z" fill="white"/>
<path d="M17.5121 26.9713C17.5492 26.1391 18.3131 25.3572 19.2426 25.3248C20.9795 25.3233 22.7172 25.3233 24.4541 25.3255C25.3924 25.3169 26.1738 26.0902 26.2446 26.9195C26.1193 26.9289 25.9939 26.936 25.8686 26.9375C23.8005 26.9354 21.7325 26.9382 19.6652 26.936C19.6643 28.2767 19.6566 29.6174 19.6691 30.9582C21.8642 30.9552 24.0583 30.9538 26.2533 30.9589C26.191 31.8183 25.3978 32.581 24.4416 32.6147C22.8679 32.6349 21.2942 32.6154 19.7204 32.6241C19.3286 32.6364 18.9249 32.5917 18.5718 32.4284C17.9631 32.1444 17.5326 31.5653 17.5114 30.9366C17.5097 29.6146 17.5073 28.2932 17.5121 26.9713Z" fill="white"/>
<path d="M39.5402 25.3238C38.8352 25.316 38.173 25.7439 37.8836 26.3201C37.5935 26.8358 37.7338 27.432 37.6991 27.9873C37.6725 28.8885 38.5492 29.7193 39.5402 29.7121C41.2645 29.715 42.9888 29.7057 44.7123 29.7165C44.7123 30.1638 44.7155 30.6112 44.7099 31.0587C42.3809 31.0637 40.0511 31.0674 37.7221 31.0572C37.7765 31.621 38.1707 32.1462 38.7194 32.4073C39.0656 32.5807 39.4693 32.6318 39.8595 32.6246C41.5135 32.6188 43.1686 32.6317 44.8226 32.6174C45.6496 32.5936 46.4246 32.0427 46.6123 31.3032C46.6942 30.8466 46.6942 30.3833 46.6857 29.9222C46.673 29.4605 46.5098 28.9807 46.1235 28.6656C45.7798 28.3096 45.2499 28.1621 44.7454 28.1441C43.044 28.1441 41.3418 28.1476 39.6404 28.1427C39.6412 27.722 39.6364 27.3019 39.6467 26.8819C41.9354 26.8739 44.225 26.8991 46.5131 26.8696C46.4491 26.0531 45.6512 25.3296 44.7454 25.3246C43.01 25.3238 41.2747 25.3253 39.5402 25.3238Z" fill="white"/>
<path d="M15.361 4.484C16.2546 2.93841 17.9044 1.98651 19.6897 1.98651H44.1038C45.889 1.98651 47.5389 2.93841 48.4324 4.48399L60.6325 25.5868C61.5276 27.1351 61.5276 29.0436 60.6325 30.5919L48.4324 51.6947C47.5389 53.2403 45.889 54.1922 44.1038 54.1922H19.6897C17.9044 54.1922 16.2546 53.2403 15.361 51.6947L3.16094 30.5919C2.26584 29.0436 2.26584 27.1351 3.16094 25.5868L15.361 4.484Z" stroke="white" stroke-opacity="0.25" stroke-width="2"/>
</svg>
