<svg width="25" height="25" viewBox="0 0 25 25" fill="none" xmlns="http://www.w3.org/2000/svg">
<g clip-path="url(#clip0_118_2203)">
<path d="M0.591797 24.9814L2.2788 18.8184C1.2378 17.0144 0.690797 14.9694 0.691797 12.8724C0.694797 6.31644 6.0298 0.981445 12.5848 0.981445C15.7658 0.982445 18.7518 2.22145 20.9978 4.46945C23.2428 6.71745 24.4788 9.70545 24.4778 12.8834C24.4748 19.4404 19.1398 24.7754 12.5848 24.7754C10.5948 24.7744 8.6338 24.2754 6.8968 23.3274L0.591797 24.9814ZM7.1888 21.1744C8.8648 22.1694 10.4648 22.7654 12.5808 22.7664C18.0288 22.7664 22.4668 18.3324 22.4698 12.8814C22.4718 7.41945 18.0548 2.99145 12.5888 2.98945C7.1368 2.98945 2.7018 7.42345 2.6998 12.8734C2.6988 15.0984 3.3508 16.7644 4.4458 18.5074L3.4468 22.1554L7.1888 21.1744ZM18.5758 15.7104C18.5018 15.5864 18.3038 15.5124 18.0058 15.3634C17.7088 15.2144 16.2478 14.4954 15.9748 14.3964C15.7028 14.2974 15.5048 14.2474 15.3058 14.5454C15.1078 14.8424 14.5378 15.5124 14.3648 15.7104C14.1918 15.9084 14.0178 15.9334 13.7208 15.7844C13.4238 15.6354 12.4658 15.3224 11.3308 14.3094C10.4478 13.5214 9.8508 12.5484 9.6778 12.2504C9.5048 11.9534 9.6598 11.7924 9.8078 11.6444C9.9418 11.5114 10.1048 11.2974 10.2538 11.1234C10.4048 10.9514 10.4538 10.8274 10.5538 10.6284C10.6528 10.4304 10.6038 10.2564 10.5288 10.1074C10.4538 9.95945 9.8598 8.49645 9.6128 7.90145C9.3708 7.32245 9.1258 7.40044 8.9438 7.39145L8.3738 7.38145C8.1758 7.38145 7.8538 7.45545 7.5818 7.75345C7.3098 8.05145 6.5418 8.76945 6.5418 10.2324C6.5418 11.6954 7.6068 13.1084 7.7548 13.3064C7.9038 13.5044 9.8498 16.5064 12.8308 17.7934C13.5398 18.0994 14.0938 18.2824 14.5248 18.4194C15.2368 18.6454 15.8848 18.6134 16.3968 18.5374C16.9678 18.4524 18.1548 17.8184 18.4028 17.1244C18.6508 16.4294 18.6508 15.8344 18.5758 15.7104Z" fill="white"/>
</g>
<defs>
<clipPath id="clip0_118_2203">
<rect width="24" height="24" fill="white" transform="translate(0.535156 0.981445)"/>
</clipPath>
</defs>
</svg>
