<svg width="53" height="52" viewBox="0 0 53 52" fill="none" xmlns="http://www.w3.org/2000/svg">
<g clip-path="url(#clip0_350_17)">
<g opacity="0.25">
<path d="M0.650391 18.9453H5.60039C6.05039 18.9453 7.40039 18.7953 8.00039 20.8953C8.45039 22.2453 9.05039 24.3453 9.95039 27.4953H10.2504C11.1504 24.1953 11.9004 21.9453 12.2004 20.8953C12.8004 18.7953 14.3004 18.9453 14.9004 18.9453H19.5504V33.3453H14.7504V24.7953H14.4504L11.9004 33.3453H8.30039L5.75039 24.7953H5.30039V33.3453H0.650391M21.5004 18.9453H26.3004V27.4953H26.7504L29.9004 20.4453C30.5004 19.0953 31.8504 18.9453 31.8504 18.9453H36.3504V33.3453H31.5504V24.7953H31.2504L28.1004 31.8453C27.5004 33.1953 26.0004 33.3453 26.0004 33.3453H21.5004M42.8004 28.9953V33.3453H38.3004V25.8453H53.0004C52.4004 27.6453 50.3004 28.9953 47.9004 28.9953" fill="white"/>
<path d="M53.3 24.9453C53.9 22.2453 52.1 18.9453 48.2 18.9453H38C38.3 22.0953 41 24.9453 43.85 24.9453" fill="url(#paint0_linear_350_17)"/>
</g>
</g>
<defs>
<linearGradient id="paint0_linear_350_17" x1="51.5" y1="16.9953" x2="39.5" y2="16.9953" gradientUnits="userSpaceOnUse">
<stop stop-color="#DCDCDC"/>
<stop offset="1" stop-color="#8C8C8C"/>
</linearGradient>
<clipPath id="clip0_350_17">
<rect width="52" height="52" fill="white" transform="translate(0.833008 -0.00463867)"/>
</clipPath>
</defs>
</svg>
