<svg width="122" height="45" viewBox="0 0 122 45" fill="none" xmlns="http://www.w3.org/2000/svg">
<path fill-rule="evenodd" clip-rule="evenodd" d="M52.5302 12.49H48.4302V27.89H52.5302V25.6921C53.0406 26.4363 53.6673 27.0289 54.4102 27.47C55.2635 27.9634 56.2302 28.21 57.3102 28.21C58.4302 28.21 59.4102 27.9634 60.2502 27.47C61.1035 26.9634 61.7635 26.2567 62.2302 25.35C62.7102 24.43 62.9502 23.3767 62.9502 22.19C62.9502 20.9767 62.7102 19.9167 62.2302 19.01C61.7635 18.1034 61.1035 17.3967 60.2502 16.89C59.4102 16.3834 58.4302 16.13 57.3102 16.13C56.2435 16.13 55.2768 16.3834 54.4102 16.89C53.6673 17.3195 53.0406 17.9056 52.5302 18.6483V12.49ZM58.4702 20.67C58.7102 21.11 58.8302 21.6167 58.8302 22.19C58.8302 22.75 58.7102 23.25 58.4702 23.69C58.2435 24.13 57.9235 24.4767 57.5102 24.73C57.0968 24.97 56.6168 25.09 56.0702 25.09C55.5235 25.09 55.0035 24.97 54.5102 24.73C54.0168 24.4767 53.5835 24.13 53.2102 23.69C52.8368 23.25 52.5502 22.75 52.3502 22.19C52.5502 21.6167 52.8368 21.11 53.2102 20.67C53.5835 20.23 54.0168 19.8834 54.5102 19.63C55.0035 19.3767 55.5235 19.25 56.0702 19.25C56.6168 19.25 57.0968 19.3767 57.5102 19.63C57.9235 19.8834 58.2435 20.23 58.4702 20.67ZM110.184 19.49V17.71L112.504 16.77L114.264 13.39H116.584V16.47H121.384V19.49H116.584V22.85C116.584 23.6767 116.751 24.2567 117.084 24.59C117.417 24.9233 118.024 25.09 118.904 25.09C119.464 25.09 119.957 25.0433 120.384 24.95C120.824 24.8433 121.224 24.71 121.584 24.55V27.63C121.184 27.7767 120.657 27.91 120.004 28.03C119.351 28.15 118.677 28.21 117.984 28.21C116.717 28.21 115.677 28.0167 114.864 27.63C114.064 27.2433 113.471 26.69 113.084 25.97C112.697 25.2367 112.504 24.3833 112.504 23.41V19.49H110.184ZM109.639 24.17C109.639 25.05 109.372 25.79 108.839 26.39C108.306 26.99 107.546 27.4434 106.559 27.75C105.572 28.0567 104.386 28.21 102.999 28.21C101.572 28.21 100.319 28.0367 99.2389 27.69C98.1723 27.3434 97.3389 26.8567 96.7389 26.23C96.1389 25.6034 95.8189 24.8767 95.7789 24.05H99.9189C100.012 24.3567 100.192 24.6234 100.459 24.85C100.739 25.0634 101.106 25.23 101.559 25.35C102.012 25.4567 102.552 25.51 103.179 25.51C103.992 25.51 104.606 25.43 105.019 25.27C105.446 25.11 105.659 24.87 105.659 24.55C105.659 24.2967 105.499 24.11 105.179 23.99C104.859 23.8567 104.312 23.7567 103.539 23.69L101.519 23.53C100.172 23.4367 99.0989 23.2367 98.2989 22.93C97.5123 22.61 96.9456 22.2034 96.5989 21.71C96.2523 21.2034 96.0789 20.63 96.0789 19.99C96.0789 19.1234 96.3456 18.41 96.8789 17.85C97.4256 17.2767 98.1789 16.85 99.1389 16.57C100.112 16.2767 101.246 16.13 102.539 16.13C103.819 16.13 104.959 16.2967 105.959 16.63C106.959 16.9634 107.759 17.43 108.359 18.03C108.959 18.6167 109.306 19.31 109.399 20.11H105.259C105.192 19.8567 105.046 19.63 104.819 19.43C104.592 19.2167 104.279 19.0434 103.879 18.91C103.479 18.7767 102.966 18.71 102.339 18.71C101.606 18.71 101.046 18.79 100.659 18.95C100.286 19.11 100.099 19.3367 100.099 19.63C100.099 19.8567 100.212 20.0367 100.439 20.17C100.679 20.3034 101.119 20.3967 101.759 20.45L104.419 20.65C105.739 20.73 106.779 20.9234 107.539 21.23C108.299 21.5234 108.839 21.9167 109.159 22.41C109.479 22.9034 109.639 23.49 109.639 24.17ZM36.6433 31.51C35.8033 31.51 35.0567 31.4034 34.4033 31.19C33.75 30.99 33.1167 30.6767 32.5033 30.25V27.41C33.13 27.81 33.7167 28.0967 34.2633 28.27C34.81 28.4434 35.41 28.53 36.0633 28.53C36.61 28.53 37.0967 28.41 37.5233 28.17C37.95 27.93 38.2967 27.49 38.5633 26.85L38.5718 26.83H36.7833L31.9233 16.47H36.4233L39.6564 24.2595L42.9433 16.47H47.2833L41.8033 28.11C41.4167 28.95 40.9433 29.6167 40.3833 30.11C39.8367 30.6167 39.2433 30.9767 38.6033 31.19C37.9633 31.4034 37.31 31.51 36.6433 31.51ZM21.1504 16.47H17.0504L17.8104 20.41V27.89H21.8904V22.39C21.8904 21.79 22.0037 21.27 22.2304 20.83C22.457 20.39 22.777 20.05 23.1904 19.81C23.617 19.57 24.1104 19.45 24.6704 19.45C25.4837 19.45 26.1037 19.6767 26.5304 20.13C26.9704 20.5834 27.1904 21.2367 27.1904 22.09V27.89H31.2704V21.49C31.2704 20.3967 31.0637 19.45 30.6504 18.65C30.2504 17.85 29.6637 17.23 28.8904 16.79C28.117 16.35 27.1837 16.13 26.0904 16.13C25.1704 16.13 24.3304 16.3434 23.5704 16.77C22.8104 17.1967 22.1704 17.83 21.6504 18.67C21.6118 18.7313 21.5743 18.7936 21.5377 18.857L21.1504 16.47ZM11.3869 27.89L11.0932 25.5631C10.5676 26.3681 9.91221 27.0038 9.12691 27.47C8.28691 27.9634 7.32691 28.21 6.24691 28.21C5.12691 28.21 4.14025 27.9634 3.28691 27.47C2.44691 26.9634 1.78691 26.2567 1.30691 25.35C0.826914 24.43 0.586914 23.3767 0.586914 22.19C0.586914 20.9767 0.826914 19.9167 1.30691 19.01C1.78691 18.1034 2.44691 17.3967 3.28691 16.89C4.14025 16.3834 5.12691 16.13 6.24691 16.13C7.32691 16.13 8.28691 16.3834 9.12691 16.89C9.90687 17.3409 10.5643 17.9645 11.0992 18.7607L11.3869 16.47H15.6269L14.9069 22.17L15.6269 27.89H11.3869ZM4.72691 22.19C4.72691 22.75 4.84025 23.25 5.06691 23.69C5.30691 24.13 5.63358 24.4767 6.04691 24.73C6.46025 24.97 6.93358 25.09 7.46691 25.09C8.02691 25.09 8.55358 24.97 9.04691 24.73C9.54025 24.4767 9.97358 24.13 10.3469 23.69C10.7202 23.25 11.0002 22.75 11.1869 22.19C11.0002 21.6167 10.7202 21.11 10.3469 20.67C9.97358 20.23 9.54025 19.8834 9.04691 19.63C8.55358 19.3767 8.02691 19.25 7.46691 19.25C6.93358 19.25 6.46025 19.3767 6.04691 19.63C5.63358 19.8834 5.30691 20.23 5.06691 20.67C4.84025 21.11 4.72691 21.6167 4.72691 22.19Z" fill="white"/>
<g filter="url(#filter0_d_117_1779)">
<path d="M83.5191 27.47C84.6124 27.9634 85.8924 28.21 87.3591 28.21C88.8124 28.21 90.0857 27.9634 91.1791 27.47C92.2857 26.9634 93.1457 26.2567 93.7591 25.35C94.3724 24.43 94.6791 23.3767 94.6791 22.19C94.6791 20.9767 94.3724 19.9167 93.7591 19.01C93.1457 18.1034 92.2857 17.3967 91.1791 16.89C90.0857 16.3834 88.8124 16.13 87.3591 16.13C85.8924 16.13 84.6124 16.3834 83.5191 16.89C82.4729 17.3749 81.6464 18.0428 81.0397 18.8939L84.2133 21.5C84.2728 21.1538 84.3814 20.8439 84.5391 20.57C84.7924 20.1167 85.1591 19.77 85.6391 19.53C86.1191 19.29 86.6924 19.17 87.3591 19.17C88.0257 19.17 88.5924 19.29 89.0591 19.53C89.5391 19.77 89.9057 20.1167 90.1591 20.57C90.4124 21.01 90.5391 21.55 90.5391 22.19C90.5391 22.8034 90.4124 23.3367 90.1591 23.79C89.9057 24.2434 89.5391 24.59 89.0591 24.83C88.5924 25.07 88.0257 25.19 87.3591 25.19C86.6924 25.19 86.1191 25.07 85.6391 24.83C85.4543 24.7377 85.2864 24.6295 85.1352 24.5055L85.1365 24.5152L76.2204 17.3688C75.9465 17.1932 75.6527 17.0336 75.3392 16.89C74.2459 16.3834 72.9725 16.13 71.5192 16.13C70.0526 16.13 68.7726 16.3834 67.6792 16.89C66.5859 17.3967 65.7326 18.1034 65.1192 19.01C64.5059 19.9167 64.1992 20.9767 64.1992 22.19C64.1992 23.3767 64.5059 24.43 65.1192 25.35C65.7326 26.2567 66.5859 26.9634 67.6792 27.47C68.7726 27.9634 70.0526 28.21 71.5192 28.21C72.9725 28.21 74.2459 27.9634 75.3392 27.47C76.3915 26.9882 77.2208 26.3256 77.8271 25.4821L74.6422 22.8667C74.5821 23.2045 74.4744 23.5123 74.3192 23.79C74.0659 24.2434 73.6992 24.59 73.2192 24.83C72.7526 25.07 72.1859 25.19 71.5192 25.19C70.8526 25.19 70.2792 25.07 69.7992 24.83C69.3192 24.59 68.9526 24.2434 68.6992 23.79C68.4459 23.3367 68.3192 22.7967 68.3192 22.17C68.3192 21.5434 68.4459 21.01 68.6992 20.57C68.9526 20.1167 69.3192 19.77 69.7992 19.53C70.2792 19.29 70.8526 19.17 71.5192 19.17C72.1859 19.17 72.7526 19.29 73.2192 19.53C73.3898 19.6153 73.5461 19.7141 73.6881 19.8264L78.6322 23.7889L78.71 23.8513L82.5317 26.9144C82.8356 27.1206 83.1648 27.3058 83.5191 27.47Z" fill="#BA49FF"/>
</g>
<defs>
<filter id="filter0_d_117_1779" x="48.1992" y="0.130035" width="62.4795" height="44.08" filterUnits="userSpaceOnUse" color-interpolation-filters="sRGB">
<feFlood flood-opacity="0" result="BackgroundImageFix"/>
<feColorMatrix in="SourceAlpha" type="matrix" values="0 0 0 0 0 0 0 0 0 0 0 0 0 0 0 0 0 0 127 0" result="hardAlpha"/>
<feOffset/>
<feGaussianBlur stdDeviation="8"/>
<feComposite in2="hardAlpha" operator="out"/>
<feColorMatrix type="matrix" values="0 0 0 0 0.62 0 0 0 0 0 0 0 0 0 1 0 0 0 1 0"/>
<feBlend mode="normal" in2="BackgroundImageFix" result="effect1_dropShadow_117_1779"/>
<feBlend mode="normal" in="SourceGraphic" in2="effect1_dropShadow_117_1779" result="shape"/>
</filter>
</defs>
</svg>
