<svg width="1077" height="419" viewBox="0 0 1077 419" fill="none" xmlns="http://www.w3.org/2000/svg">
<path d="M996.243 282.716C1012.39 282.716 1026.47 285.486 1038.49 291.024C1050.62 296.444 1060.05 304.103 1066.76 314.001C1073.48 323.898 1076.84 335.564 1076.84 348.996C1076.84 362.311 1073.48 373.977 1066.76 383.992C1060.05 393.89 1050.62 401.608 1038.49 407.146C1026.47 412.566 1012.39 415.276 996.243 415.276H925.897V282.716H996.243ZM971.145 394.951L950.642 374.625H999.778C1006.26 374.625 1011.8 373.623 1016.39 371.62C1021.11 369.499 1024.7 366.553 1027.17 362.783C1029.65 358.894 1030.89 354.299 1030.89 348.996C1030.89 343.576 1029.65 338.981 1027.17 335.21C1024.7 331.44 1021.11 328.553 1016.39 326.55C1011.8 324.429 1006.26 323.368 999.778 323.368H950.642L971.145 303.042V394.951Z" fill="white"/>
<path d="M833.415 282.716V395.127L812.913 374.625H911.537V415.276H787.814V282.716H833.415Z" fill="white"/>
<path d="M691.03 418.458C674.887 418.458 660.747 415.571 648.611 409.797C636.592 404.024 627.225 395.952 620.508 385.583C613.792 375.096 610.434 362.901 610.434 348.996C610.434 335.092 613.792 322.956 620.508 312.587C627.225 302.1 636.592 293.969 648.611 288.196C660.747 282.422 674.887 279.535 691.03 279.535C707.173 279.535 721.254 282.422 733.273 288.196C745.409 293.969 754.836 302.1 761.552 312.587C768.268 322.956 771.627 335.092 771.627 348.996C771.627 362.901 768.268 375.096 761.552 385.583C754.836 395.952 745.409 404.024 733.273 409.797C721.254 415.571 707.173 418.458 691.03 418.458ZM691.03 377.806C698.218 377.806 704.404 376.687 709.588 374.448C714.773 372.091 718.72 368.792 721.43 364.55C724.258 360.19 725.672 355.006 725.672 348.996C725.672 342.987 724.258 337.861 721.43 333.62C718.72 329.26 714.773 325.96 709.588 323.722C704.404 321.365 698.218 320.187 691.03 320.187C683.842 320.187 677.656 321.365 672.472 323.722C667.287 325.96 663.281 329.26 660.453 333.62C657.743 337.861 656.388 342.987 656.388 348.996C656.388 355.006 657.743 360.19 660.453 364.55C663.281 368.792 667.287 372.091 672.472 374.448C677.656 376.687 683.842 377.806 691.03 377.806Z" fill="white"/>
<path d="M552.046 350.941L555.581 342.81C565.597 343.164 573.963 344.755 580.679 347.583C587.396 350.41 592.404 354.358 595.703 359.425C599.12 364.373 600.829 370.324 600.829 377.276C600.829 384.464 599.179 390.944 595.88 396.718C592.698 402.492 587.808 407.028 581.21 410.328C574.611 413.627 566.363 415.276 556.465 415.276H452.361L462.436 347.229L452.361 282.716H552.753C565.008 282.716 574.611 285.603 581.563 291.377C588.515 297.033 591.991 304.928 591.991 315.061C591.991 320.835 590.695 326.255 588.103 331.322C585.51 336.389 581.269 340.689 575.377 344.224C569.603 347.641 561.826 349.88 552.046 350.941ZM496.901 405.379L479.58 385.053H541.972C545.86 385.053 548.924 384.051 551.163 382.048C553.401 379.927 554.521 377.099 554.521 373.564C554.521 370.383 553.401 367.673 551.163 365.434C549.042 363.195 545.86 362.076 541.618 362.076H489.301V332.382H534.902C537.966 332.382 540.499 331.44 542.502 329.554C544.623 327.669 545.684 325.254 545.684 322.308C545.684 319.598 544.741 317.359 542.856 315.591C540.97 313.824 538.319 312.94 534.902 312.94H479.757L496.901 292.614L505.916 347.229L496.901 405.379Z" fill="white"/>
<path d="M484.54 260.623V195.227H530.141V260.623H484.54ZM422.679 128.063H472.698L516.708 184.799H497.796L541.629 128.063H591.649L522.01 217.497L492.494 218.027L422.679 128.063Z" fill="white"/>
<path d="M317.858 238.353V202.12H408.175V238.353H317.858ZM394.212 128.063L452.362 260.623H403.757L357.979 148.212H369.644L323.867 260.623H275.262L333.411 128.063H394.212Z" fill="white"/>
<path d="M193.913 128.063V240.474L173.411 219.971H272.035V260.623H148.312V128.063H193.913Z" fill="white"/>
<path d="M77.6299 128.063C89.6487 128.063 99.9 130.066 108.384 134.073C116.985 137.961 123.525 143.558 128.003 150.864C132.48 158.051 134.719 166.535 134.719 176.315C134.719 186.095 132.48 194.638 128.003 201.943C123.525 209.131 116.985 214.728 108.384 218.734C99.9 222.623 89.6487 224.567 77.6299 224.567H21.6012V189.041H74.6252C79.1028 189.041 82.5788 187.921 85.0532 185.683C87.5277 183.444 88.7649 180.321 88.7649 176.315C88.7649 172.191 87.5277 169.068 85.0532 166.947C82.5788 164.709 79.1028 163.589 74.6252 163.589H25.4896L45.9922 143.087V260.623H0.391602V128.063H77.6299Z" fill="white"/>
<circle cx="621.816" cy="117.017" r="68.1504" stroke="white" stroke-opacity="0.25" stroke-width="1.5"/>
<circle cx="621.817" cy="117.017" r="17.7322" fill="white"/>
<path d="M621.816 0.398182V233.635" stroke="url(#paint0_linear_222_116)" stroke-opacity="0.25"/>
<path d="M738.436 117.017L505.199 117.017" stroke="url(#paint1_linear_222_116)" stroke-opacity="0.25"/>
<defs>
<linearGradient id="paint0_linear_222_116" x1="622.316" y1="0.398182" x2="622.316" y2="233.635" gradientUnits="userSpaceOnUse">
<stop stop-color="white" stop-opacity="0"/>
<stop offset="0.515626" stop-color="white"/>
<stop offset="1" stop-color="white" stop-opacity="0"/>
</linearGradient>
<linearGradient id="paint1_linear_222_116" x1="738.436" y1="117.517" x2="505.199" y2="117.517" gradientUnits="userSpaceOnUse">
<stop stop-color="white" stop-opacity="0"/>
<stop offset="0.515626" stop-color="white"/>
<stop offset="1" stop-color="white" stop-opacity="0"/>
</linearGradient>
</defs>
</svg>
