<svg width="1440" height="335" viewBox="0 0 1440 335" fill="none" xmlns="http://www.w3.org/2000/svg">
<g clip-path="url(#clip0_171_17)">
<path fill-rule="evenodd" clip-rule="evenodd" d="M962.871 30.9994V153.999H1016.5L1066.36 71.8044V153.999H1108.34V30.9994H1053.07L1004.86 110.556V30.9994H962.871ZM1366.73 133.335L1358.31 153.999H1313.21L1367.17 30.9994H1423.58L1477.54 153.999H1432.44L1424.02 133.335H1366.73ZM1410.33 99.7154L1395.38 62.9851L1380.42 99.7154H1410.33ZM334.141 304.001C319.163 304.001 306.043 301.322 294.781 295.965C283.629 290.607 274.937 283.118 268.705 273.497C262.473 263.766 259.357 252.45 259.357 239.549C259.357 226.647 262.473 215.386 268.705 205.765C274.937 196.034 283.629 188.49 294.781 183.133C306.043 177.775 319.163 175.097 334.141 175.097C349.12 175.097 362.185 177.775 373.337 183.133C384.599 188.49 393.345 196.034 399.577 205.765C405.809 215.386 408.925 226.647 408.925 239.549C408.925 252.45 405.809 263.766 399.577 273.497C393.345 283.118 384.599 290.607 373.337 295.965C362.185 301.322 349.12 304.001 334.141 304.001ZM334.141 266.281C340.811 266.281 346.551 265.242 351.361 263.165C356.172 260.978 359.835 257.917 362.349 253.981C364.973 249.935 366.285 245.125 366.285 239.549C366.285 233.973 364.973 229.217 362.349 225.281C359.835 221.235 356.172 218.174 351.361 216.097C346.551 213.91 340.811 212.817 334.141 212.817C327.472 212.817 321.732 213.91 316.921 216.097C312.111 218.174 308.393 221.235 305.769 225.281C303.255 229.217 301.997 233.973 301.997 239.549C301.997 245.125 303.255 249.935 305.769 253.981C308.393 257.917 312.111 260.978 316.921 263.165C321.732 265.242 327.472 266.281 334.141 266.281ZM531.548 236.037C533.904 236.648 536.097 237.382 538.128 238.237C544.36 240.861 549.007 244.523 552.068 249.225C555.239 253.817 556.824 259.338 556.824 265.789C556.824 272.458 555.293 278.471 552.232 283.829C549.28 289.186 544.743 293.395 538.62 296.457C532.497 299.518 524.844 301.049 515.66 301.049H419.064L428.412 237.909L419.064 178.049H512.216C523.587 178.049 532.497 180.727 538.948 186.085C545.399 191.333 548.624 198.658 548.624 208.061C548.624 213.418 547.421 218.447 545.016 223.149C542.611 227.85 538.674 231.841 533.208 235.121C532.673 235.437 532.12 235.743 531.548 236.037ZM463.315 273.005H502.212C505.82 273.005 508.663 272.075 510.74 270.217C512.817 268.249 513.856 265.625 513.856 262.345C513.856 259.393 512.817 256.878 510.74 254.801C508.772 252.723 505.82 251.685 501.884 251.685H466.62L463.315 273.005ZM495.652 224.133H466.482L463.505 206.093H495.652C498.823 206.093 501.283 206.913 503.032 208.553C504.781 210.193 505.656 212.27 505.656 214.785C505.656 217.518 504.672 219.759 502.704 221.509C500.845 223.258 498.495 224.133 495.652 224.133ZM571.129 178.049H613.441V219.541H665.921V178.049H708.233V301.049H665.921V256.933H613.441V301.049H571.129V178.049ZM837.638 254.145H771.599L769.382 267.593H843.706V301.049H724.642L733.662 239.549L724.642 178.049H842.886V211.505H769.382L771.599 224.953H837.638V254.145ZM226.899 183.625C219.027 179.907 209.515 178.049 198.363 178.049H126.695V301.049H169.007V267.593H198.363C209.515 267.593 219.027 265.789 226.899 262.181C234.881 258.463 240.949 253.27 245.103 246.601C249.258 239.822 251.335 231.895 251.335 222.821C251.335 213.746 249.258 205.874 245.103 199.205C240.949 192.426 234.881 187.233 226.899 183.625ZM169.007 234.629H195.575C199.73 234.629 202.955 233.59 205.251 231.513C207.547 229.435 208.695 226.538 208.695 222.821C208.695 218.994 207.547 216.097 205.251 214.129C202.955 212.051 199.73 211.013 195.575 211.013H169.007V234.629ZM1.98494 301.049L17.3433 273.984L-37.5391 178.049H9.03694L40.5696 233.881L71.8489 178.049H117.441L47.5769 301.049H1.98494ZM1166.75 30.9994H1209.06V72.4914H1261.54V30.9994H1303.85V153.999H1261.54V109.883H1209.06V153.999H1166.75V30.9994ZM834.28 153.999L842.695 133.335H899.993L908.408 153.999H953.508L899.552 30.9994H843.136L789.18 153.999H834.28ZM871.344 62.9851L856.386 99.7154H886.302L871.344 62.9851ZM775.755 36.5754C767.883 32.8581 758.371 30.9994 747.219 30.9994H675.551V153.999H717.863V120.543H747.219C758.371 120.543 767.883 118.739 775.755 115.131C783.736 111.414 789.804 106.221 793.959 99.5514C798.114 92.7728 800.191 84.8461 800.191 75.7714C800.191 66.6968 798.114 58.8248 793.959 52.1554C789.804 45.3768 783.736 40.1834 775.755 36.5754ZM744.431 87.5794H717.863V63.9634H744.431C748.586 63.9634 751.811 65.0021 754.107 67.0794C756.403 69.0474 757.551 71.9448 757.551 75.7714C757.551 79.4888 756.403 82.3861 754.107 84.4634C751.811 86.5408 748.586 87.5794 744.431 87.5794ZM662.322 30.9994V68.7194H606.234V153.999H563.922V30.9994H662.322ZM398.801 30.9994V153.999H452.429L502.285 71.8044V153.999H544.269V30.9994H489.001L440.785 110.556V30.9994H398.801Z" fill="url(#paint0_linear_171_17)"/>
</g>
<defs>
<linearGradient id="paint0_linear_171_17" x1="-3.56139" y1="304" x2="1438.2" y2="304" gradientUnits="userSpaceOnUse">
<stop stop-color="white" stop-opacity="0.75"/>
<stop offset="0.0865937" stop-color="white"/>
<stop offset="0.919976" stop-color="white"/>
<stop offset="1" stop-color="white" stop-opacity="0.75"/>
</linearGradient>
<clipPath id="clip0_171_17">
<rect width="1440" height="335" fill="white"/>
</clipPath>
</defs>
</svg>
