<svg width="1516" height="418" viewBox="0 0 1516 418" fill="none" xmlns="http://www.w3.org/2000/svg">
<path fill-rule="evenodd" clip-rule="evenodd" d="M1001.18 144.412V267.412H1054.81L1104.67 185.217V267.412H1146.65V144.412H1091.38L1043.17 223.968V144.412H1001.18ZM1405.04 246.748L1396.62 267.412H1351.52L1405.48 144.412H1461.89L1515.85 267.412H1470.75L1462.33 246.748H1405.04ZM1448.64 213.128L1433.69 176.397L1418.73 213.128H1448.64ZM372.452 417.413C357.473 417.413 344.353 414.734 333.092 409.377C321.94 404.019 313.248 396.53 307.016 386.909C300.784 377.178 297.668 365.862 297.668 352.961C297.668 340.059 300.784 328.798 307.016 319.177C313.248 309.446 321.94 301.902 333.092 296.545C344.353 291.188 357.473 288.509 372.452 288.509C387.431 288.509 400.496 291.188 411.648 296.545C422.909 301.902 431.656 309.446 437.888 319.177C444.12 328.798 447.236 340.059 447.236 352.961C447.236 365.862 444.12 377.178 437.888 386.909C431.656 396.53 422.909 404.019 411.648 409.377C400.496 414.734 387.431 417.413 372.452 417.413ZM372.452 379.693C379.121 379.693 384.861 378.654 389.672 376.577C394.483 374.39 398.145 371.329 400.66 367.393C403.284 363.348 404.596 358.537 404.596 352.961C404.596 347.385 403.284 342.629 400.66 338.693C398.145 334.647 394.483 331.586 389.672 329.509C384.861 327.322 379.121 326.229 372.452 326.229C365.783 326.229 360.043 327.322 355.232 329.509C350.421 331.586 346.704 334.647 344.08 338.693C341.565 342.629 340.308 347.385 340.308 352.961C340.308 358.537 341.565 363.348 344.08 367.393C346.704 371.329 350.421 374.39 355.232 376.577C360.043 378.654 365.783 379.693 372.452 379.693ZM569.859 349.449C572.215 350.061 574.408 350.794 576.438 351.649C582.67 354.273 587.317 357.936 590.378 362.637C593.549 367.229 595.134 372.75 595.134 379.201C595.134 385.87 593.604 391.884 590.542 397.241C587.59 402.598 583.053 406.808 576.93 409.869C570.808 412.93 563.154 414.461 553.97 414.461H457.374L466.722 351.321L457.374 291.461H550.526C561.897 291.461 570.808 294.14 577.258 299.497C583.709 304.745 586.934 312.07 586.934 321.473C586.934 326.83 585.732 331.86 583.326 336.561C580.921 341.262 576.985 345.253 571.518 348.533C570.984 348.849 570.431 349.155 569.859 349.449ZM501.626 386.417H540.522C544.13 386.417 546.973 385.488 549.05 383.629C551.128 381.661 552.166 379.037 552.166 375.757C552.166 372.805 551.128 370.29 549.05 368.213C547.082 366.136 544.13 365.097 540.194 365.097H504.931L501.626 386.417ZM533.962 337.545H504.793L501.815 319.505H533.962C537.133 319.505 539.593 320.325 541.342 321.965C543.092 323.605 543.966 325.682 543.966 328.197C543.966 330.93 542.982 333.172 541.014 334.921C539.156 336.67 536.805 337.545 533.962 337.545ZM609.44 291.461H651.752V332.953H704.232V291.461H746.544V414.461H704.232V370.345H651.752V414.461H609.44V291.461ZM875.949 367.557H809.91L807.693 381.005H882.017V414.461H762.953L771.973 352.961L762.953 291.461H881.197V324.917H807.693L809.91 338.365H875.949V367.557ZM265.21 297.037C257.338 293.32 247.826 291.461 236.674 291.461H165.006V414.461H207.318V381.005H236.674C247.826 381.005 257.338 379.201 265.21 375.593C273.191 371.876 279.259 366.682 283.414 360.013C287.569 353.234 289.646 345.308 289.646 336.233C289.646 327.158 287.569 319.286 283.414 312.617C279.259 305.838 273.191 300.645 265.21 297.037ZM207.318 348.041H233.886C238.041 348.041 241.266 347.002 243.562 344.925C245.858 342.848 247.006 339.95 247.006 336.233C247.006 332.406 245.858 329.509 243.562 327.541C241.266 325.464 238.041 324.425 233.886 324.425H207.318V348.041ZM40.2955 414.461L55.6538 387.396L0.771484 291.461H47.3475L78.8801 347.293L110.159 291.461H155.751L85.8875 414.461H40.2955ZM1205.06 144.412H1247.37V185.904H1299.85V144.412H1342.16V267.412H1299.85V223.296H1247.37V267.412H1205.06V144.412ZM872.59 267.412L881.005 246.748H938.303L946.718 267.412H991.818L937.862 144.412H881.446L827.49 267.412H872.59ZM909.654 176.397L894.697 213.128H924.612L909.654 176.397ZM814.065 149.988C806.193 146.27 796.681 144.412 785.529 144.412H713.861V267.412H756.173V233.956H785.529C796.681 233.956 806.193 232.152 814.065 228.544C822.047 224.826 828.115 219.633 832.269 212.964C836.424 206.185 838.501 198.258 838.501 189.184C838.501 180.109 836.424 172.237 832.269 165.568C828.115 158.789 822.047 153.596 814.065 149.988ZM782.741 200.992H756.173V177.376H782.741C786.896 177.376 790.121 178.414 792.417 180.492C794.713 182.46 795.861 185.357 795.861 189.184C795.861 192.901 794.713 195.798 792.417 197.876C790.121 199.953 786.896 200.992 782.741 200.992ZM700.633 144.412V182.132H644.544V267.412H602.233V144.412H700.633ZM437.111 144.412V267.412H490.739L540.595 185.217V267.412H582.579V144.412H527.311L479.095 223.968V144.412H437.111Z" fill="url(#paint0_linear_221_74)"/>
<circle cx="1073.92" cy="105.569" r="61.6222" stroke="white" stroke-opacity="0.25" stroke-width="1.5"/>
<circle cx="1073.92" cy="105.569" r="16.0521" fill="white"/>
<path d="M1073.92 0V211.138" stroke="url(#paint1_linear_221_74)" stroke-opacity="0.25"/>
<path d="M1179.48 105.569L968.347 105.569" stroke="url(#paint2_linear_221_74)" stroke-opacity="0.25"/>
<defs>
<linearGradient id="paint0_linear_221_74" x1="34.7492" y1="417.413" x2="1476.51" y2="417.413" gradientUnits="userSpaceOnUse">
<stop stop-color="white" stop-opacity="0.75"/>
<stop offset="0.0865937" stop-color="white"/>
<stop offset="0.919976" stop-color="white"/>
<stop offset="1" stop-color="white" stop-opacity="0.75"/>
</linearGradient>
<linearGradient id="paint1_linear_221_74" x1="1074.42" y1="0" x2="1074.42" y2="211.138" gradientUnits="userSpaceOnUse">
<stop stop-color="white" stop-opacity="0"/>
<stop offset="0.515626" stop-color="white"/>
<stop offset="1" stop-color="white" stop-opacity="0"/>
</linearGradient>
<linearGradient id="paint2_linear_221_74" x1="1179.48" y1="106.069" x2="968.347" y2="106.069" gradientUnits="userSpaceOnUse">
<stop stop-color="white" stop-opacity="0"/>
<stop offset="0.515626" stop-color="white"/>
<stop offset="1" stop-color="white" stop-opacity="0"/>
</linearGradient>
</defs>
</svg>
