<svg width="262" height="31" viewBox="0 0 262 31" fill="none" xmlns="http://www.w3.org/2000/svg">
<path d="M8.70812 3.62941C9.60167 2.08382 11.2515 1.13193 13.0368 1.13193H23.9624C25.7477 1.13193 27.3976 2.08382 28.2911 3.62941L33.747 13.0666C34.6421 14.6149 34.6421 16.5233 33.747 18.0716L28.2911 27.5088C27.3976 29.0544 25.7477 30.0063 23.9624 30.0063H13.0368C11.2515 30.0063 9.60167 29.0544 8.70812 27.5088L3.25225 18.0716C2.35715 16.5233 2.35715 14.6149 3.25225 13.0666L8.70812 3.62941Z" stroke="white" stroke-opacity="0.25" stroke-width="2"/>
<path d="M24.0596 14.7031C24.7262 15.088 24.7262 16.0502 24.0596 16.4351L16.47 20.817C15.8034 21.2019 14.97 20.7207 14.97 19.9509L14.97 11.1873C14.97 10.4175 15.8034 9.93637 16.47 10.3213L24.0596 14.7031Z" fill="white"/>
<path d="M51.2904 11.0094V18.5094H49.6004V11.7394L50.3704 12.5094H44.5604L45.3304 11.7394V18.5094H43.6304V11.0094H51.2904ZM56.8396 18.6594C55.9662 18.6594 55.1996 18.4961 54.5396 18.1694C53.8862 17.8428 53.3762 17.3894 53.0096 16.8094C52.6429 16.2228 52.4596 15.5394 52.4596 14.7594C52.4596 13.9794 52.6429 13.2994 53.0096 12.7194C53.3762 12.1328 53.8862 11.6761 54.5396 11.3494C55.1996 11.0228 55.9662 10.8594 56.8396 10.8594C57.7129 10.8594 58.4762 11.0228 59.1296 11.3494C59.7896 11.6761 60.3029 12.1328 60.6696 12.7194C61.0362 13.2994 61.2196 13.9794 61.2196 14.7594C61.2196 15.5394 61.0362 16.2228 60.6696 16.8094C60.3029 17.3894 59.7896 17.8428 59.1296 18.1694C58.4762 18.4961 57.7129 18.6594 56.8396 18.6594ZM56.8396 17.1494C57.3862 17.1494 57.8562 17.0528 58.2496 16.8594C58.6496 16.6661 58.9562 16.3894 59.1696 16.0294C59.3896 15.6694 59.4996 15.2461 59.4996 14.7594C59.4996 14.2728 59.3896 13.8494 59.1696 13.4894C58.9562 13.1294 58.6496 12.8528 58.2496 12.6594C57.8562 12.4661 57.3862 12.3694 56.8396 12.3694C56.2996 12.3694 55.8296 12.4661 55.4296 12.6594C55.0296 12.8528 54.7196 13.1294 54.4996 13.4894C54.2862 13.8494 54.1796 14.2728 54.1796 14.7594C54.1796 15.2461 54.2862 15.6694 54.4996 16.0294C54.7196 16.3894 55.0296 16.6661 55.4296 16.8594C55.8296 17.0528 56.2996 17.1494 56.8396 17.1494ZM70.5101 15.4594C70.4368 16.0928 70.2135 16.6528 69.8401 17.1394C69.4735 17.6194 68.9868 17.9928 68.3801 18.2594C67.7801 18.5261 67.0935 18.6594 66.3201 18.6594C65.4668 18.6594 64.7168 18.4961 64.0701 18.1694C63.4301 17.8428 62.9301 17.3894 62.5701 16.8094C62.2101 16.2228 62.0301 15.5394 62.0301 14.7594C62.0301 13.9794 62.2101 13.2994 62.5701 12.7194C62.9301 12.1328 63.4301 11.6761 64.0701 11.3494C64.7168 11.0228 65.4668 10.8594 66.3201 10.8594C67.0935 10.8594 67.7801 10.9928 68.3801 11.2594C68.9868 11.5261 69.4735 11.8994 69.8401 12.3794C70.2135 12.8594 70.4368 13.4194 70.5101 14.0594H68.8001C68.7335 13.7061 68.5901 13.4028 68.3701 13.1494C68.1501 12.8894 67.8668 12.6894 67.5201 12.5494C67.1735 12.4094 66.7701 12.3394 66.3101 12.3394C65.7835 12.3394 65.3268 12.4394 64.9401 12.6394C64.5601 12.8328 64.2668 13.1128 64.0601 13.4794C63.8535 13.8394 63.7501 14.2661 63.7501 14.7594C63.7501 15.2528 63.8535 15.6828 64.0601 16.0494C64.2668 16.4094 64.5601 16.6894 64.9401 16.8894C65.3268 17.0828 65.7835 17.1794 66.3101 17.1794C66.7701 17.1794 67.1735 17.1128 67.5201 16.9794C67.8668 16.8394 68.1501 16.6428 68.3701 16.3894C68.5901 16.1294 68.7335 15.8194 68.8001 15.4594H70.5101ZM82.1486 11.0094V18.5094H80.5286V11.5794L80.9586 11.6094L77.7586 18.5094H76.0086L72.8086 11.6294L73.2286 11.5894V18.5094H71.6186V11.0094H74.2286L77.2486 17.6894H76.5186L79.5386 11.0094H82.1486ZM87.6892 18.6594C86.8158 18.6594 86.0492 18.4961 85.3892 18.1694C84.7358 17.8428 84.2258 17.3894 83.8592 16.8094C83.4925 16.2228 83.3092 15.5394 83.3092 14.7594C83.3092 13.9794 83.4925 13.2994 83.8592 12.7194C84.2258 12.1328 84.7358 11.6761 85.3892 11.3494C86.0492 11.0228 86.8158 10.8594 87.6892 10.8594C88.5625 10.8594 89.3258 11.0228 89.9792 11.3494C90.6392 11.6761 91.1525 12.1328 91.5192 12.7194C91.8858 13.2994 92.0692 13.9794 92.0692 14.7594C92.0692 15.5394 91.8858 16.2228 91.5192 16.8094C91.1525 17.3894 90.6392 17.8428 89.9792 18.1694C89.3258 18.4961 88.5625 18.6594 87.6892 18.6594ZM87.6892 17.1494C88.2358 17.1494 88.7058 17.0528 89.0992 16.8594C89.4992 16.6661 89.8058 16.3894 90.0192 16.0294C90.2392 15.6694 90.3492 15.2461 90.3492 14.7594C90.3492 14.2728 90.2392 13.8494 90.0192 13.4894C89.8058 13.1294 89.4992 12.8528 89.0992 12.6594C88.7058 12.4661 88.2358 12.3694 87.6892 12.3694C87.1492 12.3694 86.6792 12.4661 86.2792 12.6594C85.8792 12.8528 85.5692 13.1294 85.3492 13.4894C85.1358 13.8494 85.0292 14.2728 85.0292 14.7594C85.0292 15.2461 85.1358 15.6694 85.3492 16.0294C85.5692 16.3894 85.8792 16.6661 86.2792 16.8594C86.6792 17.0528 87.1492 17.1494 87.6892 17.1494ZM95.2782 11.7694H96.9682V18.5094H95.2782V11.7694ZM92.2882 11.0094H99.9482V12.5094H92.2882V11.0094ZM104.986 11.0094C105.579 11.0094 106.093 11.1128 106.526 11.3194C106.959 11.5261 107.289 11.8161 107.516 12.1894C107.749 12.5628 107.866 12.9961 107.866 13.4894C107.866 13.9828 107.749 14.4161 107.516 14.7894C107.289 15.1561 106.959 15.4461 106.526 15.6594C106.093 15.8661 105.579 15.9694 104.986 15.9694H101.676V14.5694H104.896C105.289 14.5694 105.596 14.4728 105.816 14.2794C106.043 14.0861 106.156 13.8228 106.156 13.4894C106.156 13.1494 106.043 12.8861 105.816 12.6994C105.596 12.5061 105.289 12.4094 104.896 12.4094H101.826L102.596 11.5994V18.5094H100.896V11.0094H104.986ZM108.855 18.5094V11.0094H110.515V17.6494L110.005 17.5494L114.745 11.0094H116.955V18.5094H115.295V11.7794L115.805 11.8794L111.005 18.5094H108.855ZM120.884 11.7694H122.574V18.5094H120.884V11.7694ZM117.894 11.0094H125.554V12.5094H117.894V11.0094ZM132.701 14.1094V15.4094H127.331V14.1094H132.701ZM128.471 14.7594L127.971 17.9394L127.231 17.0994H133.011V18.5094H126.261L126.841 14.7594L126.261 11.0094H132.961V12.4194H127.231L127.971 11.5794L128.471 14.7594ZM133.914 19.9394L134.844 17.9694L134.934 18.5794C134.754 18.5794 134.588 18.5361 134.434 18.4494C134.288 18.3561 134.171 18.2361 134.084 18.0894C133.998 17.9428 133.954 17.7794 133.954 17.5994C133.954 17.4194 133.998 17.2561 134.084 17.1094C134.171 16.9628 134.288 16.8494 134.434 16.7694C134.588 16.6828 134.754 16.6394 134.934 16.6394C135.128 16.6394 135.298 16.6828 135.444 16.7694C135.591 16.8561 135.708 16.9761 135.794 17.1294C135.881 17.2761 135.924 17.4461 135.924 17.6394C135.924 17.8128 135.881 17.9994 135.794 18.1994C135.714 18.3994 135.574 18.6561 135.374 18.9694L134.774 19.9394H133.914ZM139.451 18.5094V11.0094H141.141V17.1294L140.661 16.7894L145.301 11.0094H147.111L140.981 18.5094H139.451ZM143.031 14.8394L144.251 13.7494L147.221 18.5094H145.281L143.031 14.8394ZM149.187 16.9294V15.5494H154.387V16.9294H149.187ZM152.917 11.0094L156.427 18.5094H154.617L151.547 11.6994H152.107L149.037 18.5094H147.227L150.737 11.0094H152.917ZM157.234 18.5094V11.0094H158.924V17.1294L158.444 16.7894L163.084 11.0094H164.894L158.764 18.5094H157.234ZM160.814 14.8394L162.034 13.7494L165.004 18.5094H163.064L160.814 14.8394ZM171.903 18.6594C171.136 18.6594 170.449 18.5294 169.843 18.2694C169.236 18.0028 168.743 17.6361 168.363 17.1694C167.983 16.7028 167.753 16.1628 167.673 15.5494H169.353C169.426 15.8961 169.573 16.1961 169.793 16.4494C170.013 16.7028 170.299 16.8994 170.653 17.0394C171.013 17.1728 171.426 17.2394 171.893 17.2394C172.446 17.2394 172.919 17.1394 173.313 16.9394C173.713 16.7394 174.019 16.4561 174.233 16.0894C174.446 15.7161 174.553 15.2728 174.553 14.7594C174.553 14.2461 174.446 13.8061 174.233 13.4394C174.019 13.0661 173.713 12.7794 173.313 12.5794C172.919 12.3794 172.446 12.2794 171.893 12.2794C171.433 12.2794 171.023 12.3494 170.663 12.4894C170.309 12.6228 170.023 12.8161 169.803 13.0694C169.583 13.3161 169.433 13.6161 169.353 13.9694H167.673C167.753 13.3494 167.983 12.8094 168.363 12.3494C168.743 11.8828 169.236 11.5194 169.843 11.2594C170.449 10.9928 171.136 10.8594 171.903 10.8594C172.769 10.8594 173.526 11.0228 174.173 11.3494C174.819 11.6761 175.323 12.1328 175.683 12.7194C176.049 13.2994 176.233 13.9794 176.233 14.7594C176.233 15.5394 176.049 16.2228 175.683 16.8094C175.323 17.3894 174.819 17.8428 174.173 18.1694C173.526 18.4961 172.769 18.6594 171.903 18.6594ZM175.323 15.3394H170.633V14.1794H175.323V15.3394ZM179.448 11.7694H181.138V18.5094H179.448V11.7694ZM176.458 11.0094H184.118V12.5094H176.458V11.0094ZM188.724 18.6594C187.851 18.6594 187.084 18.4961 186.424 18.1694C185.771 17.8428 185.261 17.3894 184.894 16.8094C184.528 16.2228 184.344 15.5394 184.344 14.7594C184.344 13.9794 184.528 13.2994 184.894 12.7194C185.261 12.1328 185.771 11.6761 186.424 11.3494C187.084 11.0228 187.851 10.8594 188.724 10.8594C189.598 10.8594 190.361 11.0228 191.014 11.3494C191.674 11.6761 192.188 12.1328 192.554 12.7194C192.921 13.2994 193.104 13.9794 193.104 14.7594C193.104 15.5394 192.921 16.2228 192.554 16.8094C192.188 17.3894 191.674 17.8428 191.014 18.1694C190.361 18.4961 189.598 18.6594 188.724 18.6594ZM188.724 17.1494C189.271 17.1494 189.741 17.0528 190.134 16.8594C190.534 16.6661 190.841 16.3894 191.054 16.0294C191.274 15.6694 191.384 15.2461 191.384 14.7594C191.384 14.2728 191.274 13.8494 191.054 13.4894C190.841 13.1294 190.534 12.8528 190.134 12.6594C189.741 12.4661 189.271 12.3694 188.724 12.3694C188.184 12.3694 187.714 12.4661 187.314 12.6594C186.914 12.8528 186.604 13.1294 186.384 13.4894C186.171 13.8494 186.064 14.2728 186.064 14.7594C186.064 15.2461 186.171 15.6694 186.384 16.0294C186.604 16.3894 186.914 16.6661 187.314 16.8594C187.714 17.0528 188.184 17.1494 188.724 17.1494ZM200.923 11.0094C201.517 11.0094 202.03 11.1128 202.463 11.3194C202.897 11.5261 203.227 11.8161 203.453 12.1894C203.687 12.5628 203.803 12.9961 203.803 13.4894C203.803 13.9828 203.687 14.4161 203.453 14.7894C203.227 15.1561 202.897 15.4461 202.463 15.6594C202.03 15.8661 201.517 15.9694 200.923 15.9694H197.613V14.5694H200.833C201.227 14.5694 201.533 14.4728 201.753 14.2794C201.98 14.0861 202.093 13.8228 202.093 13.4894C202.093 13.1494 201.98 12.8861 201.753 12.6994C201.533 12.5061 201.227 12.4094 200.833 12.4094H197.763L198.533 11.5994V18.5094H196.833V11.0094H200.923ZM205.124 16.9294V15.5494H210.324V16.9294H205.124ZM208.854 11.0094L212.364 18.5094H210.554L207.484 11.6994H208.044L204.974 18.5094H203.164L206.674 11.0094H208.854ZM214.241 13.9394H217.641C218.241 13.9394 218.741 14.0361 219.141 14.2294C219.541 14.4161 219.841 14.6828 220.041 15.0294C220.241 15.3694 220.341 15.7694 220.341 16.2294C220.341 16.6894 220.231 17.0894 220.011 17.4294C219.798 17.7694 219.488 18.0361 219.081 18.2294C218.681 18.4161 218.201 18.5094 217.641 18.5094H212.931L213.511 14.5794L212.931 11.0094H219.741V12.3494H213.981L214.631 11.5294L215.131 14.5494L214.601 18.0294L213.951 17.2294H217.451C217.818 17.2294 218.108 17.1361 218.321 16.9494C218.541 16.7628 218.651 16.5094 218.651 16.1894C218.651 15.8694 218.541 15.6161 218.321 15.4294C218.101 15.2428 217.808 15.1494 217.441 15.1494H214.241V13.9394ZM225.433 18.6594C224.56 18.6594 223.793 18.4961 223.133 18.1694C222.48 17.8428 221.97 17.3894 221.603 16.8094C221.237 16.2228 221.053 15.5394 221.053 14.7594C221.053 13.9794 221.237 13.2994 221.603 12.7194C221.97 12.1328 222.48 11.6761 223.133 11.3494C223.793 11.0228 224.56 10.8594 225.433 10.8594C226.307 10.8594 227.07 11.0228 227.723 11.3494C228.383 11.6761 228.897 12.1328 229.263 12.7194C229.63 13.2994 229.813 13.9794 229.813 14.7594C229.813 15.5394 229.63 16.2228 229.263 16.8094C228.897 17.3894 228.383 17.8428 227.723 18.1694C227.07 18.4961 226.307 18.6594 225.433 18.6594ZM225.433 17.1494C225.98 17.1494 226.45 17.0528 226.843 16.8594C227.243 16.6661 227.55 16.3894 227.763 16.0294C227.983 15.6694 228.093 15.2461 228.093 14.7594C228.093 14.2728 227.983 13.8494 227.763 13.4894C227.55 13.1294 227.243 12.8528 226.843 12.6594C226.45 12.4661 225.98 12.3694 225.433 12.3694C224.893 12.3694 224.423 12.4661 224.023 12.6594C223.623 12.8528 223.313 13.1294 223.093 13.4894C222.88 13.8494 222.773 14.2728 222.773 14.7594C222.773 15.2461 222.88 15.6694 223.093 16.0294C223.313 16.3894 223.623 16.6661 224.023 16.8594C224.423 17.0528 224.893 17.1494 225.433 17.1494ZM233.022 11.7694H234.712V18.5094H233.022V11.7694ZM230.032 11.0094H237.692V12.5094H230.032V11.0094ZM238.61 16.9294V15.5494H243.81V16.9294H238.61ZM242.34 11.0094L245.85 18.5094H244.04L240.97 11.6994H241.53L238.46 18.5094H236.65L240.16 11.0094H242.34ZM252.858 14.1094V15.4094H247.488V14.1094H252.858ZM248.628 14.7594L248.128 17.9394L247.388 17.0994H253.168V18.5094H246.418L246.998 14.7594L246.418 11.0094H253.118V12.4194H247.388L248.128 11.5794L248.628 14.7594ZM256.743 11.7694H258.433V18.5094H256.743V11.7694ZM253.753 11.0094H261.413V12.5094H253.753V11.0094Z" fill="white"/>
</svg>
